<svg width="288" height="207" viewBox="0 0 288 207" fill="none" xmlns="http://www.w3.org/2000/svg">
<path d="M11.0078 137H9.5V126.859H3.89062V137H2.39062V125.625H11.0078V137ZM13.1328 132.695C13.1328 131.867 13.2943 131.122 13.6172 130.461C13.9453 129.799 14.3984 129.289 14.9766 128.93C15.5599 128.57 16.224 128.391 16.9688 128.391C18.1198 128.391 19.0495 128.789 19.7578 129.586C20.4714 130.383 20.8281 131.443 20.8281 132.766V132.867C20.8281 133.69 20.6693 134.43 20.3516 135.086C20.0391 135.737 19.5885 136.245 19 136.609C18.4167 136.974 17.7448 137.156 16.9844 137.156C15.8385 137.156 14.9089 136.758 14.1953 135.961C13.487 135.164 13.1328 134.109 13.1328 132.797V132.695ZM14.5859 132.867C14.5859 133.805 14.8021 134.557 15.2344 135.125C15.6719 135.693 16.2552 135.977 16.9844 135.977C17.7188 135.977 18.3021 135.69 18.7344 135.117C19.1667 134.539 19.3828 133.732 19.3828 132.695C19.3828 131.768 19.1615 131.018 18.7188 130.445C18.2812 129.867 17.6979 129.578 16.9688 129.578C16.2552 129.578 15.6797 129.862 15.2422 130.43C14.8047 130.997 14.5859 131.81 14.5859 132.867ZM25.2734 133.398H24.2188V137H22.7656V128.547H24.2188V132.125H25.1641L28.0078 128.547H29.7578L26.4141 132.609L30.0391 137H28.2031L25.2734 133.398ZM36.5 137C36.4167 136.833 36.349 136.536 36.2969 136.109C35.625 136.807 34.8229 137.156 33.8906 137.156C33.0573 137.156 32.3724 136.922 31.8359 136.453C31.3047 135.979 31.0391 135.38 31.0391 134.656C31.0391 133.776 31.3724 133.094 32.0391 132.609C32.7109 132.12 33.6536 131.875 34.8672 131.875H36.2734V131.211C36.2734 130.706 36.1224 130.305 35.8203 130.008C35.5182 129.706 35.0729 129.555 34.4844 129.555C33.9688 129.555 33.5365 129.685 33.1875 129.945C32.8385 130.206 32.6641 130.521 32.6641 130.891H31.2109C31.2109 130.469 31.3594 130.062 31.6562 129.672C31.9583 129.276 32.3646 128.964 32.875 128.734C33.3906 128.505 33.9557 128.391 34.5703 128.391C35.5443 128.391 36.3073 128.635 36.8594 129.125C37.4115 129.609 37.6979 130.279 37.7188 131.133V135.023C37.7188 135.799 37.8177 136.417 38.0156 136.875V137H36.5ZM34.1016 135.898C34.5547 135.898 34.9844 135.781 35.3906 135.547C35.7969 135.312 36.0911 135.008 36.2734 134.633V132.898H35.1406C33.3698 132.898 32.4844 133.417 32.4844 134.453C32.4844 134.906 32.6354 135.26 32.9375 135.516C33.2396 135.771 33.6276 135.898 34.1016 135.898ZM44.6328 130.859C44.6328 130.464 44.4818 130.151 44.1797 129.922C43.8776 129.688 43.4635 129.57 42.9375 129.57C42.4271 129.57 42 129.703 41.6562 129.969C41.3177 130.234 41.1484 130.547 41.1484 130.906H39.7109C39.7109 130.172 40.0182 129.57 40.6328 129.102C41.2474 128.633 42.0156 128.398 42.9375 128.398C43.9271 128.398 44.6979 128.612 45.25 129.039C45.8021 129.461 46.0781 130.065 46.0781 130.852C46.0781 131.232 45.9635 131.581 45.7344 131.898C45.5052 132.216 45.1797 132.469 44.7578 132.656C45.7422 132.99 46.2344 133.646 46.2344 134.625C46.2344 135.401 45.9349 136.016 45.3359 136.469C44.737 136.922 43.9375 137.148 42.9375 137.148C41.9635 137.148 41.1589 136.911 40.5234 136.438C39.8932 135.958 39.5781 135.312 39.5781 134.5H41.0156C41.0156 134.911 41.1979 135.266 41.5625 135.562C41.9323 135.854 42.3906 136 42.9375 136C43.4896 136 43.9349 135.872 44.2734 135.617C44.612 135.362 44.7812 135.031 44.7812 134.625C44.7812 134.151 44.638 133.812 44.3516 133.609C44.0703 133.401 43.6302 133.297 43.0312 133.297H41.5859V132.078H43.1562C44.1406 132.052 44.6328 131.646 44.6328 130.859ZM49.6875 131.461H51.8828C52.8411 131.471 53.599 131.721 54.1562 132.211C54.7135 132.701 54.9922 133.365 54.9922 134.203C54.9922 135.047 54.7057 135.724 54.1328 136.234C53.5599 136.745 52.7891 137 51.8203 137H48.2422V128.547H49.6875V131.461ZM58.0078 137H56.5547V128.547H58.0078V137ZM49.6875 132.641V135.82H51.8359C52.3776 135.82 52.7969 135.682 53.0938 135.406C53.3906 135.125 53.5391 134.742 53.5391 134.258C53.5391 133.789 53.3932 133.406 53.1016 133.109C52.8151 132.807 52.4115 132.651 51.8906 132.641H49.6875ZM60.6641 137V128.547H63.9609C65.0859 128.547 65.9479 128.745 66.5469 129.141C67.151 129.531 67.4531 130.107 67.4531 130.867C67.4531 131.258 67.3359 131.612 67.1016 131.93C66.8672 132.242 66.5208 132.482 66.0625 132.648C66.5729 132.768 66.9818 133.003 67.2891 133.352C67.6016 133.701 67.7578 134.117 67.7578 134.602C67.7578 135.378 67.4714 135.971 66.8984 136.383C66.3307 136.794 65.526 137 64.4844 137H60.6641ZM62.1094 133.289V135.836H64.5C65.1042 135.836 65.5547 135.724 65.8516 135.5C66.1536 135.276 66.3047 134.961 66.3047 134.555C66.3047 133.711 65.6849 133.289 64.4453 133.289H62.1094ZM62.1094 132.133H63.9766C65.3307 132.133 66.0078 131.737 66.0078 130.945C66.0078 130.154 65.3672 129.745 64.0859 129.719H62.1094V132.133ZM74.8906 137C74.8073 136.833 74.7396 136.536 74.6875 136.109C74.0156 136.807 73.2135 137.156 72.2812 137.156C71.4479 137.156 70.763 136.922 70.2266 136.453C69.6953 135.979 69.4297 135.38 69.4297 134.656C69.4297 133.776 69.763 133.094 70.4297 132.609C71.1016 132.12 72.0443 131.875 73.2578 131.875H74.6641V131.211C74.6641 130.706 74.513 130.305 74.2109 130.008C73.9089 129.706 73.4635 129.555 72.875 129.555C72.3594 129.555 71.9271 129.685 71.5781 129.945C71.2292 130.206 71.0547 130.521 71.0547 130.891H69.6016C69.6016 130.469 69.75 130.062 70.0469 129.672C70.349 129.276 70.7552 128.964 71.2656 128.734C71.7812 128.505 72.3464 128.391 72.9609 128.391C73.9349 128.391 74.6979 128.635 75.25 129.125C75.8021 129.609 76.0885 130.279 76.1094 131.133V135.023C76.1094 135.799 76.2083 136.417 76.4062 136.875V137H74.8906ZM72.4922 135.898C72.9453 135.898 73.375 135.781 73.7812 135.547C74.1875 135.312 74.4818 135.008 74.6641 134.633V132.898H73.5312C71.7604 132.898 70.875 133.417 70.875 134.453C70.875 134.906 71.026 135.26 71.3281 135.516C71.6302 135.771 72.0182 135.898 72.4922 135.898ZM79.9531 132.133H81.9844C82.0938 131.008 82.4922 130.104 83.1797 129.422C83.8724 128.734 84.7448 128.391 85.7969 128.391C86.901 128.391 87.8047 128.763 88.5078 129.508C89.2109 130.253 89.5911 131.221 89.6484 132.414L89.6562 132.867C89.6562 133.69 89.4948 134.432 89.1719 135.094C88.849 135.755 88.3958 136.266 87.8125 136.625C87.2292 136.979 86.5625 137.156 85.8125 137.156C84.724 137.156 83.8333 136.802 83.1406 136.094C82.4479 135.38 82.0599 134.456 81.9766 133.32H79.9531V137H78.5078V128.547H79.9531V132.133ZM83.4062 132.867C83.4062 133.805 83.6224 134.557 84.0547 135.125C84.4922 135.693 85.0781 135.977 85.8125 135.977C86.5469 135.977 87.1276 135.688 87.5547 135.109C87.987 134.531 88.2031 133.727 88.2031 132.695C88.2031 131.773 87.9844 131.023 87.5469 130.445C87.1094 129.867 86.526 129.578 85.7969 129.578C85.0781 129.578 84.5 129.862 84.0625 130.43C83.625 130.997 83.4062 131.81 83.4062 132.867ZM102.547 132.867C102.547 134.154 102.253 135.19 101.664 135.977C101.076 136.763 100.279 137.156 99.2734 137.156C98.2474 137.156 97.4401 136.831 96.8516 136.18V140.25H95.4062V128.547H96.7266L96.7969 129.484C97.3854 128.755 98.2031 128.391 99.25 128.391C100.266 128.391 101.068 128.773 101.656 129.539C102.25 130.305 102.547 131.37 102.547 132.734V132.867ZM101.102 132.703C101.102 131.75 100.898 130.997 100.492 130.445C100.086 129.893 99.5286 129.617 98.8203 129.617C97.9453 129.617 97.2891 130.005 96.8516 130.781V134.82C97.2839 135.591 97.9453 135.977 98.8359 135.977C99.5286 135.977 100.078 135.703 100.484 135.156C100.896 134.604 101.102 133.786 101.102 132.703ZM109.609 137C109.526 136.833 109.458 136.536 109.406 136.109C108.734 136.807 107.932 137.156 107 137.156C106.167 137.156 105.482 136.922 104.945 136.453C104.414 135.979 104.148 135.38 104.148 134.656C104.148 133.776 104.482 133.094 105.148 132.609C105.82 132.12 106.763 131.875 107.977 131.875H109.383V131.211C109.383 130.706 109.232 130.305 108.93 130.008C108.628 129.706 108.182 129.555 107.594 129.555C107.078 129.555 106.646 129.685 106.297 129.945C105.948 130.206 105.773 130.521 105.773 130.891H104.32C104.32 130.469 104.469 130.062 104.766 129.672C105.068 129.276 105.474 128.964 105.984 128.734C106.5 128.505 107.065 128.391 107.68 128.391C108.654 128.391 109.417 128.635 109.969 129.125C110.521 129.609 110.807 130.279 110.828 131.133V135.023C110.828 135.799 110.927 136.417 111.125 136.875V137H109.609ZM107.211 135.898C107.664 135.898 108.094 135.781 108.5 135.547C108.906 135.312 109.201 135.008 109.383 134.633V132.898H108.25C106.479 132.898 105.594 133.417 105.594 134.453C105.594 134.906 105.745 135.26 106.047 135.516C106.349 135.771 106.737 135.898 107.211 135.898ZM116.805 129.031C117.867 129.031 118.716 129.388 119.352 130.102C119.992 130.81 120.312 131.745 120.312 132.906V133.039C120.312 133.836 120.159 134.549 119.852 135.18C119.544 135.805 119.102 136.292 118.523 136.641C117.951 136.984 117.289 137.156 116.539 137.156C115.404 137.156 114.49 136.779 113.797 136.023C113.104 135.263 112.758 134.245 112.758 132.969V132.266C112.758 130.49 113.086 129.078 113.742 128.031C114.404 126.984 115.378 126.346 116.664 126.117C117.393 125.987 117.885 125.828 118.141 125.641C118.396 125.453 118.523 125.195 118.523 124.867H119.711C119.711 125.518 119.562 126.026 119.266 126.391C118.974 126.755 118.505 127.013 117.859 127.164L116.781 127.406C115.922 127.609 115.276 127.953 114.844 128.438C114.417 128.917 114.138 129.557 114.008 130.359C114.773 129.474 115.706 129.031 116.805 129.031ZM116.523 130.219C115.815 130.219 115.253 130.458 114.836 130.938C114.419 131.411 114.211 132.07 114.211 132.914V133.039C114.211 133.945 114.419 134.664 114.836 135.195C115.258 135.721 115.826 135.984 116.539 135.984C117.258 135.984 117.826 135.719 118.242 135.188C118.659 134.656 118.867 133.88 118.867 132.859C118.867 132.062 118.656 131.424 118.234 130.945C117.818 130.461 117.247 130.219 116.523 130.219ZM121.555 132.695C121.555 131.867 121.716 131.122 122.039 130.461C122.367 129.799 122.82 129.289 123.398 128.93C123.982 128.57 124.646 128.391 125.391 128.391C126.542 128.391 127.471 128.789 128.18 129.586C128.893 130.383 129.25 131.443 129.25 132.766V132.867C129.25 133.69 129.091 134.43 128.773 135.086C128.461 135.737 128.01 136.245 127.422 136.609C126.839 136.974 126.167 137.156 125.406 137.156C124.26 137.156 123.331 136.758 122.617 135.961C121.909 135.164 121.555 134.109 121.555 132.797V132.695ZM123.008 132.867C123.008 133.805 123.224 134.557 123.656 135.125C124.094 135.693 124.677 135.977 125.406 135.977C126.141 135.977 126.724 135.69 127.156 135.117C127.589 134.539 127.805 133.732 127.805 132.695C127.805 131.768 127.583 131.018 127.141 130.445C126.703 129.867 126.12 129.578 125.391 129.578C124.677 129.578 124.102 129.862 123.664 130.43C123.227 130.997 123.008 131.81 123.008 132.867ZM137.172 129.719H134.336V137H132.891V129.719H130.109V128.547H137.172V129.719ZM141.438 134.883L143.406 128.547H144.953L141.555 138.305C141.029 139.711 140.193 140.414 139.047 140.414L138.773 140.391L138.234 140.289V139.117L138.625 139.148C139.115 139.148 139.495 139.049 139.766 138.852C140.042 138.654 140.268 138.292 140.445 137.766L140.766 136.906L137.75 128.547H139.328L141.438 134.883ZM157.133 137H155.688V129.742H151.797V137H150.344V128.547H157.133V137ZM159.07 132.695C159.07 131.867 159.232 131.122 159.555 130.461C159.883 129.799 160.336 129.289 160.914 128.93C161.497 128.57 162.161 128.391 162.906 128.391C164.057 128.391 164.987 128.789 165.695 129.586C166.409 130.383 166.766 131.443 166.766 132.766V132.867C166.766 133.69 166.607 134.43 166.289 135.086C165.977 135.737 165.526 136.245 164.938 136.609C164.354 136.974 163.682 137.156 162.922 137.156C161.776 137.156 160.846 136.758 160.133 135.961C159.424 135.164 159.07 134.109 159.07 132.797V132.695ZM160.523 132.867C160.523 133.805 160.74 134.557 161.172 135.125C161.609 135.693 162.193 135.977 162.922 135.977C163.656 135.977 164.24 135.69 164.672 135.117C165.104 134.539 165.32 133.732 165.32 132.695C165.32 131.768 165.099 131.018 164.656 130.445C164.219 129.867 163.635 129.578 162.906 129.578C162.193 129.578 161.617 129.862 161.18 130.43C160.742 130.997 160.523 131.81 160.523 132.867ZM171.547 129.578C171.031 129.578 170.583 129.742 170.203 130.07C169.828 130.398 169.641 130.786 169.641 131.234H168.266C168.266 130.75 168.419 130.286 168.727 129.844C169.034 129.401 169.443 129.049 169.953 128.789C170.464 128.523 170.995 128.391 171.547 128.391C172.646 128.391 173.534 128.789 174.211 129.586C174.893 130.378 175.234 131.414 175.234 132.695V132.938C175.234 133.729 175.078 134.453 174.766 135.109C174.458 135.76 174.023 136.266 173.461 136.625C172.904 136.979 172.266 137.156 171.547 137.156C170.609 137.156 169.828 136.865 169.203 136.281C168.578 135.698 168.266 134.971 168.266 134.102H169.641C169.641 134.633 169.826 135.081 170.195 135.445C170.565 135.805 171.016 135.984 171.547 135.984C172.167 135.984 172.677 135.745 173.078 135.266C173.479 134.786 173.711 134.128 173.773 133.289H170.602V132.102H173.758C173.685 131.341 173.453 130.732 173.062 130.273C172.672 129.81 172.167 129.578 171.547 129.578ZM182.844 129.719H180.008V137H178.562V129.719H175.781V128.547H182.844V129.719ZM189.344 137C189.26 136.833 189.193 136.536 189.141 136.109C188.469 136.807 187.667 137.156 186.734 137.156C185.901 137.156 185.216 136.922 184.68 136.453C184.148 135.979 183.883 135.38 183.883 134.656C183.883 133.776 184.216 133.094 184.883 132.609C185.555 132.12 186.497 131.875 187.711 131.875H189.117V131.211C189.117 130.706 188.966 130.305 188.664 130.008C188.362 129.706 187.917 129.555 187.328 129.555C186.812 129.555 186.38 129.685 186.031 129.945C185.682 130.206 185.508 130.521 185.508 130.891H184.055C184.055 130.469 184.203 130.062 184.5 129.672C184.802 129.276 185.208 128.964 185.719 128.734C186.234 128.505 186.799 128.391 187.414 128.391C188.388 128.391 189.151 128.635 189.703 129.125C190.255 129.609 190.542 130.279 190.562 131.133V135.023C190.562 135.799 190.661 136.417 190.859 136.875V137H189.344ZM186.945 135.898C187.398 135.898 187.828 135.781 188.234 135.547C188.641 135.312 188.935 135.008 189.117 134.633V132.898H187.984C186.214 132.898 185.328 133.417 185.328 134.453C185.328 134.906 185.479 135.26 185.781 135.516C186.083 135.771 186.471 135.898 186.945 135.898ZM199.742 137H198.297V129.742H194.406V137H192.953V128.547H199.742V137ZM208.969 137H207.523V133.391H203.641V137H202.188V128.547H203.641V132.211H207.523V128.547H208.969V137ZM210.914 132.695C210.914 131.867 211.076 131.122 211.398 130.461C211.727 129.799 212.18 129.289 212.758 128.93C213.341 128.57 214.005 128.391 214.75 128.391C215.901 128.391 216.831 128.789 217.539 129.586C218.253 130.383 218.609 131.443 218.609 132.766V132.867C218.609 133.69 218.451 134.43 218.133 135.086C217.82 135.737 217.37 136.245 216.781 136.609C216.198 136.974 215.526 137.156 214.766 137.156C213.62 137.156 212.69 136.758 211.977 135.961C211.268 135.164 210.914 134.109 210.914 132.797V132.695ZM212.367 132.867C212.367 133.805 212.583 134.557 213.016 135.125C213.453 135.693 214.036 135.977 214.766 135.977C215.5 135.977 216.083 135.69 216.516 135.117C216.948 134.539 217.164 133.732 217.164 132.695C217.164 131.768 216.943 131.018 216.5 130.445C216.062 129.867 215.479 129.578 214.75 129.578C214.036 129.578 213.461 129.862 213.023 130.43C212.586 130.997 212.367 131.81 212.367 132.867ZM220.375 139.266L219.555 138.703C220.044 138.021 220.299 137.318 220.32 136.594V135.289H221.734V136.422C221.734 136.948 221.604 137.474 221.344 138C221.089 138.526 220.766 138.948 220.375 139.266ZM232.75 137C232.667 136.833 232.599 136.536 232.547 136.109C231.875 136.807 231.073 137.156 230.141 137.156C229.307 137.156 228.622 136.922 228.086 136.453C227.555 135.979 227.289 135.38 227.289 134.656C227.289 133.776 227.622 133.094 228.289 132.609C228.961 132.12 229.904 131.875 231.117 131.875H232.523V131.211C232.523 130.706 232.372 130.305 232.07 130.008C231.768 129.706 231.323 129.555 230.734 129.555C230.219 129.555 229.786 129.685 229.438 129.945C229.089 130.206 228.914 130.521 228.914 130.891H227.461C227.461 130.469 227.609 130.062 227.906 129.672C228.208 129.276 228.615 128.964 229.125 128.734C229.641 128.505 230.206 128.391 230.82 128.391C231.794 128.391 232.557 128.635 233.109 129.125C233.661 129.609 233.948 130.279 233.969 131.133V135.023C233.969 135.799 234.068 136.417 234.266 136.875V137H232.75ZM230.352 135.898C230.805 135.898 231.234 135.781 231.641 135.547C232.047 135.312 232.341 135.008 232.523 134.633V132.898H231.391C229.62 132.898 228.734 133.417 228.734 134.453C228.734 134.906 228.885 135.26 229.188 135.516C229.49 135.771 229.878 135.898 230.352 135.898ZM247.109 137H245.664V133.391H241.781V137H240.328V128.547H241.781V132.211H245.664V128.547H247.109V137ZM252.945 137.156C251.799 137.156 250.867 136.781 250.148 136.031C249.43 135.276 249.07 134.268 249.07 133.008V132.742C249.07 131.904 249.229 131.156 249.547 130.5C249.87 129.839 250.318 129.323 250.891 128.953C251.469 128.578 252.094 128.391 252.766 128.391C253.865 128.391 254.719 128.753 255.328 129.477C255.938 130.201 256.242 131.237 256.242 132.586V133.188H250.516C250.536 134.021 250.779 134.695 251.242 135.211C251.711 135.721 252.305 135.977 253.023 135.977C253.534 135.977 253.966 135.872 254.32 135.664C254.674 135.456 254.984 135.18 255.25 134.836L256.133 135.523C255.424 136.612 254.362 137.156 252.945 137.156ZM252.766 129.578C252.182 129.578 251.693 129.792 251.297 130.219C250.901 130.641 250.656 131.234 250.562 132H254.797V131.891C254.755 131.156 254.557 130.589 254.203 130.188C253.849 129.781 253.37 129.578 252.766 129.578ZM2.22656 165V156.547H5.52344C6.64844 156.547 7.51042 156.745 8.10938 157.141C8.71354 157.531 9.01562 158.107 9.01562 158.867C9.01562 159.258 8.89844 159.612 8.66406 159.93C8.42969 160.242 8.08333 160.482 7.625 160.648C8.13542 160.768 8.54427 161.003 8.85156 161.352C9.16406 161.701 9.32031 162.117 9.32031 162.602C9.32031 163.378 9.03385 163.971 8.46094 164.383C7.89323 164.794 7.08854 165 6.04688 165H2.22656ZM3.67188 161.289V163.836H6.0625C6.66667 163.836 7.11719 163.724 7.41406 163.5C7.71615 163.276 7.86719 162.961 7.86719 162.555C7.86719 161.711 7.2474 161.289 6.00781 161.289H3.67188ZM3.67188 160.133H5.53906C6.89323 160.133 7.57031 159.737 7.57031 158.945C7.57031 158.154 6.92969 157.745 5.64844 157.719H3.67188V160.133ZM22.1172 165H20.6719V157.742H16.7812V165H15.3281V156.547H22.1172V165ZM24.0547 160.695C24.0547 159.867 24.2161 159.122 24.5391 158.461C24.8672 157.799 25.3203 157.289 25.8984 156.93C26.4818 156.57 27.1458 156.391 27.8906 156.391C29.0417 156.391 29.9714 156.789 30.6797 157.586C31.3932 158.383 31.75 159.443 31.75 160.766V160.867C31.75 161.69 31.5911 162.43 31.2734 163.086C30.9609 163.737 30.5104 164.245 29.9219 164.609C29.3385 164.974 28.6667 165.156 27.9062 165.156C26.7604 165.156 25.8307 164.758 25.1172 163.961C24.4089 163.164 24.0547 162.109 24.0547 160.797V160.695ZM25.5078 160.867C25.5078 161.805 25.724 162.557 26.1562 163.125C26.5938 163.693 27.1771 163.977 27.9062 163.977C28.6406 163.977 29.224 163.69 29.6562 163.117C30.0885 162.539 30.3047 161.732 30.3047 160.695C30.3047 159.768 30.0833 159.018 29.6406 158.445C29.2031 157.867 28.6198 157.578 27.8906 157.578C27.1771 157.578 26.6016 157.862 26.1641 158.43C25.7266 158.997 25.5078 159.81 25.5078 160.867ZM36.9531 163.977C37.4688 163.977 37.9193 163.82 38.3047 163.508C38.6901 163.195 38.9036 162.805 38.9453 162.336H40.3125C40.2865 162.82 40.1198 163.281 39.8125 163.719C39.5052 164.156 39.0938 164.505 38.5781 164.766C38.0677 165.026 37.526 165.156 36.9531 165.156C35.8021 165.156 34.8854 164.773 34.2031 164.008C33.526 163.237 33.1875 162.185 33.1875 160.852V160.609C33.1875 159.786 33.3385 159.055 33.6406 158.414C33.9427 157.773 34.375 157.276 34.9375 156.922C35.5052 156.568 36.1745 156.391 36.9453 156.391C37.8932 156.391 38.6797 156.674 39.3047 157.242C39.9349 157.81 40.2708 158.547 40.3125 159.453H38.9453C38.9036 158.906 38.6953 158.458 38.3203 158.109C37.9505 157.755 37.4922 157.578 36.9453 157.578C36.2109 157.578 35.6406 157.844 35.2344 158.375C34.8333 158.901 34.6328 159.664 34.6328 160.664V160.938C34.6328 161.911 34.8333 162.661 35.2344 163.188C35.6354 163.714 36.2083 163.977 36.9531 163.977ZM48.8672 156.547V165H47.4141V157.742H44.5391L44.3672 160.906C44.2734 162.359 44.0286 163.398 43.6328 164.023C43.2422 164.648 42.6198 164.974 41.7656 165H41.1875V163.727L41.6016 163.695C42.0703 163.643 42.4062 163.372 42.6094 162.883C42.8125 162.393 42.9427 161.487 43 160.164L43.1562 156.547H48.8672ZM54.6953 165.156C53.5495 165.156 52.6172 164.781 51.8984 164.031C51.1797 163.276 50.8203 162.268 50.8203 161.008V160.742C50.8203 159.904 50.9792 159.156 51.2969 158.5C51.6198 157.839 52.0677 157.323 52.6406 156.953C53.2188 156.578 53.8438 156.391 54.5156 156.391C55.6146 156.391 56.4688 156.753 57.0781 157.477C57.6875 158.201 57.9922 159.237 57.9922 160.586V161.188H52.2656C52.2865 162.021 52.5286 162.695 52.9922 163.211C53.4609 163.721 54.0547 163.977 54.7734 163.977C55.2839 163.977 55.7161 163.872 56.0703 163.664C56.4245 163.456 56.7344 163.18 57 162.836L57.8828 163.523C57.1745 164.612 56.112 165.156 54.6953 165.156ZM54.5156 157.578C53.9323 157.578 53.4427 157.792 53.0469 158.219C52.651 158.641 52.4062 159.234 52.3125 160H56.5469V159.891C56.5052 159.156 56.3073 158.589 55.9531 158.188C55.599 157.781 55.1198 157.578 54.5156 157.578ZM59.6016 163.82L60.1016 163.203C60.6641 162.474 60.9844 161.38 61.0625 159.922L61.1953 156.547H66.6406V163.82H67.7266V167.484H66.2812V165H60.3828V167.484H58.9375L58.9453 163.82H59.6016ZM61.3125 163.82H65.1953V157.883H62.5938L62.5078 159.898C62.4193 161.581 62.0208 162.888 61.3125 163.82ZM74.7969 156.547H76.2422V165H74.7969V158.836L70.8984 165H69.4531V156.547H70.8984V162.719L74.7969 156.547ZM84.0312 156.547H85.4766V165H84.0312V158.836L80.1328 165H78.6875V156.547H80.1328V162.719L84.0312 156.547ZM84.4219 153.469C84.4219 154.099 84.2057 154.607 83.7734 154.992C83.3464 155.372 82.7839 155.562 82.0859 155.562C81.388 155.562 80.8229 155.37 80.3906 154.984C79.9583 154.599 79.7422 154.094 79.7422 153.469H80.9219C80.9219 153.833 81.0208 154.12 81.2188 154.328C81.4167 154.531 81.7057 154.633 82.0859 154.633C82.4505 154.633 82.7344 154.531 82.9375 154.328C83.1458 154.125 83.25 153.839 83.25 153.469H84.4219ZM96.6328 163.086L99.5078 156.547H101.312V165H99.8672V158.852L97.1328 165H96.1328L93.3438 158.719V165H91.8984V156.547H93.7734L96.6328 163.086ZM103.258 160.695C103.258 159.867 103.419 159.122 103.742 158.461C104.07 157.799 104.523 157.289 105.102 156.93C105.685 156.57 106.349 156.391 107.094 156.391C108.245 156.391 109.174 156.789 109.883 157.586C110.596 158.383 110.953 159.443 110.953 160.766V160.867C110.953 161.69 110.794 162.43 110.477 163.086C110.164 163.737 109.714 164.245 109.125 164.609C108.542 164.974 107.87 165.156 107.109 165.156C105.964 165.156 105.034 164.758 104.32 163.961C103.612 163.164 103.258 162.109 103.258 160.797V160.695ZM104.711 160.867C104.711 161.805 104.927 162.557 105.359 163.125C105.797 163.693 106.38 163.977 107.109 163.977C107.844 163.977 108.427 163.69 108.859 163.117C109.292 162.539 109.508 161.732 109.508 160.695C109.508 159.768 109.286 159.018 108.844 158.445C108.406 157.867 107.823 157.578 107.094 157.578C106.38 157.578 105.805 157.862 105.367 158.43C104.93 158.997 104.711 159.81 104.711 160.867ZM117.633 163.086L120.508 156.547H122.312V165H120.867V158.852L118.133 165H117.133L114.344 158.719V165H112.898V156.547H114.773L117.633 163.086ZM128.148 165.156C127.003 165.156 126.07 164.781 125.352 164.031C124.633 163.276 124.273 162.268 124.273 161.008V160.742C124.273 159.904 124.432 159.156 124.75 158.5C125.073 157.839 125.521 157.323 126.094 156.953C126.672 156.578 127.297 156.391 127.969 156.391C129.068 156.391 129.922 156.753 130.531 157.477C131.141 158.201 131.445 159.237 131.445 160.586V161.188H125.719C125.74 162.021 125.982 162.695 126.445 163.211C126.914 163.721 127.508 163.977 128.227 163.977C128.737 163.977 129.169 163.872 129.523 163.664C129.878 163.456 130.188 163.18 130.453 162.836L131.336 163.523C130.628 164.612 129.565 165.156 128.148 165.156ZM127.969 157.578C127.385 157.578 126.896 157.792 126.5 158.219C126.104 158.641 125.859 159.234 125.766 160H130V159.891C129.958 159.156 129.76 158.589 129.406 158.188C129.052 157.781 128.573 157.578 127.969 157.578ZM140.031 165H138.586V161.391H134.703V165H133.25V156.547H134.703V160.211H138.586V156.547H140.031V165ZM148.641 157.719H145.805V165H144.359V157.719H141.578V156.547H148.641V157.719ZM160.93 165H159.484V157.742H155.594V165H154.141V156.547H160.93V165ZM166.758 165.156C165.612 165.156 164.68 164.781 163.961 164.031C163.242 163.276 162.883 162.268 162.883 161.008V160.742C162.883 159.904 163.042 159.156 163.359 158.5C163.682 157.839 164.13 157.323 164.703 156.953C165.281 156.578 165.906 156.391 166.578 156.391C167.677 156.391 168.531 156.753 169.141 157.477C169.75 158.201 170.055 159.237 170.055 160.586V161.188H164.328C164.349 162.021 164.591 162.695 165.055 163.211C165.523 163.721 166.117 163.977 166.836 163.977C167.346 163.977 167.779 163.872 168.133 163.664C168.487 163.456 168.797 163.18 169.062 162.836L169.945 163.523C169.237 164.612 168.174 165.156 166.758 165.156ZM166.578 157.578C165.995 157.578 165.505 157.792 165.109 158.219C164.714 158.641 164.469 159.234 164.375 160H168.609V159.891C168.568 159.156 168.37 158.589 168.016 158.188C167.661 157.781 167.182 157.578 166.578 157.578ZM178.875 160.867C178.875 162.154 178.581 163.19 177.992 163.977C177.404 164.763 176.607 165.156 175.602 165.156C174.576 165.156 173.768 164.831 173.18 164.18V168.25H171.734V156.547H173.055L173.125 157.484C173.714 156.755 174.531 156.391 175.578 156.391C176.594 156.391 177.396 156.773 177.984 157.539C178.578 158.305 178.875 159.37 178.875 160.734V160.867ZM177.43 160.703C177.43 159.75 177.227 158.997 176.82 158.445C176.414 157.893 175.857 157.617 175.148 157.617C174.273 157.617 173.617 158.005 173.18 158.781V162.82C173.612 163.591 174.273 163.977 175.164 163.977C175.857 163.977 176.406 163.703 176.812 163.156C177.224 162.604 177.43 161.786 177.43 160.703ZM184.227 165.156C183.081 165.156 182.148 164.781 181.43 164.031C180.711 163.276 180.352 162.268 180.352 161.008V160.742C180.352 159.904 180.51 159.156 180.828 158.5C181.151 157.839 181.599 157.323 182.172 156.953C182.75 156.578 183.375 156.391 184.047 156.391C185.146 156.391 186 156.753 186.609 157.477C187.219 158.201 187.523 159.237 187.523 160.586V161.188H181.797C181.818 162.021 182.06 162.695 182.523 163.211C182.992 163.721 183.586 163.977 184.305 163.977C184.815 163.977 185.247 163.872 185.602 163.664C185.956 163.456 186.266 163.18 186.531 162.836L187.414 163.523C186.706 164.612 185.643 165.156 184.227 165.156ZM184.047 157.578C183.464 157.578 182.974 157.792 182.578 158.219C182.182 158.641 181.938 159.234 181.844 160H186.078V159.891C186.036 159.156 185.839 158.589 185.484 158.188C185.13 157.781 184.651 157.578 184.047 157.578ZM189.133 163.82L189.633 163.203C190.195 162.474 190.516 161.38 190.594 159.922L190.727 156.547H196.172V163.82H197.258V167.484H195.812V165H189.914V167.484H188.469L188.477 163.82H189.133ZM190.844 163.82H194.727V157.883H192.125L192.039 159.898C191.951 161.581 191.552 162.888 190.844 163.82ZM4.72656 189.398H3.67188V193H2.21875V184.547H3.67188V188.125H4.61719L7.46094 184.547H9.21094L5.86719 188.609L9.49219 193H7.65625L4.72656 189.398ZM17.875 188.867C17.875 190.154 17.5807 191.19 16.9922 191.977C16.4036 192.763 15.6068 193.156 14.6016 193.156C13.5755 193.156 12.7682 192.831 12.1797 192.18V196.25H10.7344V184.547H12.0547L12.125 185.484C12.7135 184.755 13.5312 184.391 14.5781 184.391C15.5938 184.391 16.3958 184.773 16.9844 185.539C17.5781 186.305 17.875 187.37 17.875 188.734V188.867ZM16.4297 188.703C16.4297 187.75 16.2266 186.997 15.8203 186.445C15.4141 185.893 14.8568 185.617 14.1484 185.617C13.2734 185.617 12.6172 186.005 12.1797 186.781V190.82C12.612 191.591 13.2734 191.977 14.1641 191.977C14.8568 191.977 15.4062 191.703 15.8125 191.156C16.224 190.604 16.4297 189.786 16.4297 188.703ZM24.9375 193C24.8542 192.833 24.7865 192.536 24.7344 192.109C24.0625 192.807 23.2604 193.156 22.3281 193.156C21.4948 193.156 20.8099 192.922 20.2734 192.453C19.7422 191.979 19.4766 191.38 19.4766 190.656C19.4766 189.776 19.8099 189.094 20.4766 188.609C21.1484 188.12 22.0911 187.875 23.3047 187.875H24.7109V187.211C24.7109 186.706 24.5599 186.305 24.2578 186.008C23.9557 185.706 23.5104 185.555 22.9219 185.555C22.4062 185.555 21.974 185.685 21.625 185.945C21.276 186.206 21.1016 186.521 21.1016 186.891H19.6484C19.6484 186.469 19.7969 186.062 20.0938 185.672C20.3958 185.276 20.8021 184.964 21.3125 184.734C21.8281 184.505 22.3932 184.391 23.0078 184.391C23.9818 184.391 24.7448 184.635 25.2969 185.125C25.849 185.609 26.1354 186.279 26.1562 187.133V191.023C26.1562 191.799 26.2552 192.417 26.4531 192.875V193H24.9375ZM22.5391 191.898C22.9922 191.898 23.4219 191.781 23.8281 191.547C24.2344 191.312 24.5286 191.008 24.7109 190.633V188.898H23.5781C21.8073 188.898 20.9219 189.417 20.9219 190.453C20.9219 190.906 21.0729 191.26 21.375 191.516C21.6771 191.771 22.0651 191.898 22.5391 191.898ZM33.8906 184.547H35.3359V193H33.8906V186.836L29.9922 193H28.5469V184.547H29.9922V190.719L33.8906 184.547ZM34.2812 181.469C34.2812 182.099 34.0651 182.607 33.6328 182.992C33.2057 183.372 32.6432 183.562 31.9453 183.562C31.2474 183.562 30.6823 183.37 30.25 182.984C29.8177 182.599 29.6016 182.094 29.6016 181.469H30.7812C30.7812 181.833 30.8802 182.12 31.0781 182.328C31.276 182.531 31.5651 182.633 31.9453 182.633C32.3099 182.633 32.5938 182.531 32.7969 182.328C33.0052 182.125 33.1094 181.839 33.1094 181.469H34.2812ZM44.5625 193H43.1172V189.391H39.2344V193H37.7812V184.547H39.2344V188.211H43.1172V184.547H44.5625V193ZM52.3594 184.547H53.8047V193H52.3594V186.836L48.4609 193H47.0156V184.547H48.4609V190.719L52.3594 184.547ZM60.9922 191.086L63.8672 184.547H65.6719V193H64.2266V186.852L61.4922 193H60.4922L57.7031 186.719V193H56.2578V184.547H58.1328L60.9922 191.086ZM75.3594 191.977C75.875 191.977 76.3255 191.82 76.7109 191.508C77.0964 191.195 77.3099 190.805 77.3516 190.336H78.7188C78.6927 190.82 78.526 191.281 78.2188 191.719C77.9115 192.156 77.5 192.505 76.9844 192.766C76.474 193.026 75.9323 193.156 75.3594 193.156C74.2083 193.156 73.2917 192.773 72.6094 192.008C71.9323 191.237 71.5938 190.185 71.5938 188.852V188.609C71.5938 187.786 71.7448 187.055 72.0469 186.414C72.349 185.773 72.7812 185.276 73.3438 184.922C73.9115 184.568 74.5807 184.391 75.3516 184.391C76.2995 184.391 77.0859 184.674 77.7109 185.242C78.3411 185.81 78.6771 186.547 78.7188 187.453H77.3516C77.3099 186.906 77.1016 186.458 76.7266 186.109C76.3568 185.755 75.8984 185.578 75.3516 185.578C74.6172 185.578 74.0469 185.844 73.6406 186.375C73.2396 186.901 73.0391 187.664 73.0391 188.664V188.938C73.0391 189.911 73.2396 190.661 73.6406 191.188C74.0417 191.714 74.6146 191.977 75.3594 191.977ZM87.4844 188.867C87.4844 190.154 87.1901 191.19 86.6016 191.977C86.013 192.763 85.2161 193.156 84.2109 193.156C83.1849 193.156 82.3776 192.831 81.7891 192.18V196.25H80.3438V184.547H81.6641L81.7344 185.484C82.3229 184.755 83.1406 184.391 84.1875 184.391C85.2031 184.391 86.0052 184.773 86.5938 185.539C87.1875 186.305 87.4844 187.37 87.4844 188.734V188.867ZM86.0391 188.703C86.0391 187.75 85.8359 186.997 85.4297 186.445C85.0234 185.893 84.4661 185.617 83.7578 185.617C82.8828 185.617 82.2266 186.005 81.7891 186.781V190.82C82.2214 191.591 82.8828 191.977 83.7734 191.977C84.4661 191.977 85.0156 191.703 85.4219 191.156C85.8333 190.604 86.0391 189.786 86.0391 188.703ZM88.9453 188.695C88.9453 187.867 89.1068 187.122 89.4297 186.461C89.7578 185.799 90.2109 185.289 90.7891 184.93C91.3724 184.57 92.0365 184.391 92.7812 184.391C93.9323 184.391 94.862 184.789 95.5703 185.586C96.2839 186.383 96.6406 187.443 96.6406 188.766V188.867C96.6406 189.69 96.4818 190.43 96.1641 191.086C95.8516 191.737 95.401 192.245 94.8125 192.609C94.2292 192.974 93.5573 193.156 92.7969 193.156C91.651 193.156 90.7214 192.758 90.0078 191.961C89.2995 191.164 88.9453 190.109 88.9453 188.797V188.695ZM90.3984 188.867C90.3984 189.805 90.6146 190.557 91.0469 191.125C91.4844 191.693 92.0677 191.977 92.7969 191.977C93.5312 191.977 94.1146 191.69 94.5469 191.117C94.9792 190.539 95.1953 189.732 95.1953 188.695C95.1953 187.768 94.974 187.018 94.5312 186.445C94.0938 185.867 93.5104 185.578 92.7812 185.578C92.0677 185.578 91.4922 185.862 91.0547 186.43C90.6172 186.997 90.3984 187.81 90.3984 188.867ZM101.086 189.398H100.031V193H98.5781V184.547H100.031V188.125H100.977L103.82 184.547H105.57L102.227 188.609L105.852 193H104.016L101.086 189.398ZM106.539 188.695C106.539 187.867 106.701 187.122 107.023 186.461C107.352 185.799 107.805 185.289 108.383 184.93C108.966 184.57 109.63 184.391 110.375 184.391C111.526 184.391 112.456 184.789 113.164 185.586C113.878 186.383 114.234 187.443 114.234 188.766V188.867C114.234 189.69 114.076 190.43 113.758 191.086C113.445 191.737 112.995 192.245 112.406 192.609C111.823 192.974 111.151 193.156 110.391 193.156C109.245 193.156 108.315 192.758 107.602 191.961C106.893 191.164 106.539 190.109 106.539 188.797V188.695ZM107.992 188.867C107.992 189.805 108.208 190.557 108.641 191.125C109.078 191.693 109.661 191.977 110.391 191.977C111.125 191.977 111.708 191.69 112.141 191.117C112.573 190.539 112.789 189.732 112.789 188.695C112.789 187.768 112.568 187.018 112.125 186.445C111.688 185.867 111.104 185.578 110.375 185.578C109.661 185.578 109.086 185.862 108.648 186.43C108.211 186.997 107.992 187.81 107.992 188.867ZM120.914 191.086L123.789 184.547H125.594V193H124.148V186.852L121.414 193H120.414L117.625 186.719V193H116.18V184.547H118.055L120.914 191.086ZM127.953 192.242C127.953 191.992 128.026 191.784 128.172 191.617C128.323 191.451 128.547 191.367 128.844 191.367C129.141 191.367 129.365 191.451 129.516 191.617C129.672 191.784 129.75 191.992 129.75 192.242C129.75 192.482 129.672 192.682 129.516 192.844C129.365 193.005 129.141 193.086 128.844 193.086C128.547 193.086 128.323 193.005 128.172 192.844C128.026 192.682 127.953 192.482 127.953 192.242Z" fill="white"/>
<path d="M15.4219 96H11.8945V81.7852H5.0625V96H1.54688V78.9375H15.4219V96ZM29.707 89.7773C29.707 91.7305 29.2617 93.2969 28.3711 94.4766C27.4883 95.6484 26.293 96.2344 24.7852 96.2344C23.5039 96.2344 22.4688 95.7891 21.6797 94.8984V100.875H18.293V83.3203H21.4336L21.5508 84.5625C22.3711 83.5781 23.4414 83.0859 24.7617 83.0859C26.3242 83.0859 27.5391 83.6641 28.4062 84.8203C29.2734 85.9766 29.707 87.5703 29.707 89.6016V89.7773ZM26.3203 89.5312C26.3203 88.3516 26.1094 87.4414 25.6875 86.8008C25.2734 86.1602 24.668 85.8398 23.8711 85.8398C22.8086 85.8398 22.0781 86.2461 21.6797 87.0586V92.25C22.0938 93.0859 22.832 93.5039 23.8945 93.5039C25.5117 93.5039 26.3203 92.1797 26.3203 89.5312ZM37.6523 96.2344C35.793 96.2344 34.2773 95.6641 33.1055 94.5234C31.9414 93.3828 31.3594 91.8633 31.3594 89.9648V89.6367C31.3594 88.3633 31.6055 87.2266 32.0977 86.2266C32.5898 85.2188 33.2852 84.4453 34.1836 83.9062C35.0898 83.3594 36.1211 83.0859 37.2773 83.0859C39.0117 83.0859 40.375 83.6328 41.3672 84.7266C42.3672 85.8203 42.8672 87.3711 42.8672 89.3789V90.7617H34.793C34.9023 91.5898 35.2305 92.2539 35.7773 92.7539C36.332 93.2539 37.0312 93.5039 37.875 93.5039C39.1797 93.5039 40.1992 93.0312 40.9336 92.0859L42.5977 93.9492C42.0898 94.668 41.4023 95.2305 40.5352 95.6367C39.668 96.0352 38.707 96.2344 37.6523 96.2344ZM37.2656 85.8281C36.5938 85.8281 36.0469 86.0547 35.625 86.5078C35.2109 86.9609 34.9453 87.6094 34.8281 88.4531H39.5391V88.1836C39.5234 87.4336 39.3203 86.8555 38.9297 86.4492C38.5391 86.0352 37.9844 85.8281 37.2656 85.8281ZM52.5234 92.0039L55.8398 83.3203H60.082V96H56.6953V88.2188L53.6602 96H51.3867L48.4102 88.3477V96H45.0234V83.3203H49.2305L52.5234 92.0039ZM68.8711 96.2344C67.0117 96.2344 65.4961 95.6641 64.3242 94.5234C63.1602 93.3828 62.5781 91.8633 62.5781 89.9648V89.6367C62.5781 88.3633 62.8242 87.2266 63.3164 86.2266C63.8086 85.2188 64.5039 84.4453 65.4023 83.9062C66.3086 83.3594 67.3398 83.0859 68.4961 83.0859C70.2305 83.0859 71.5938 83.6328 72.5859 84.7266C73.5859 85.8203 74.0859 87.3711 74.0859 89.3789V90.7617H66.0117C66.1211 91.5898 66.4492 92.2539 66.9961 92.7539C67.5508 93.2539 68.25 93.5039 69.0938 93.5039C70.3984 93.5039 71.418 93.0312 72.1523 92.0859L73.8164 93.9492C73.3086 94.668 72.6211 95.2305 71.7539 95.6367C70.8867 96.0352 69.9258 96.2344 68.8711 96.2344ZM68.4844 85.8281C67.8125 85.8281 67.2656 86.0547 66.8438 86.5078C66.4297 86.9609 66.1641 87.6094 66.0469 88.4531H70.7578V88.1836C70.7422 87.4336 70.5391 86.8555 70.1484 86.4492C69.7578 86.0352 69.2031 85.8281 68.4844 85.8281ZM88.2188 91.3008H86.6836V96H83.2969V91.3008H81.7852L79.2656 96H75.1758L79.1719 89.3672L75.2227 83.3203H79.418L82.0547 88.0547H83.2969V83.3203H86.6836V88.0547H87.9492L90.5977 83.3203H94.793L90.8672 89.2852L94.8984 96H90.7383L88.2188 91.3008ZM101.262 91.207L103.605 83.3203H107.238L102.141 97.9688L101.859 98.6367C101.102 100.293 99.8516 101.121 98.1094 101.121C97.6172 101.121 97.1172 101.047 96.6094 100.898V98.332L97.125 98.3438C97.7656 98.3438 98.2422 98.2461 98.5547 98.0508C98.875 97.8555 99.125 97.5312 99.3047 97.0781L99.7031 96.0352L95.2617 83.3203H98.9062L101.262 91.207ZM119.098 86.0391H115.031V96H111.633V86.0391H107.637V83.3203H119.098V86.0391ZM119.93 89.543C119.93 88.2852 120.172 87.1641 120.656 86.1797C121.141 85.1953 121.836 84.4336 122.742 83.8945C123.656 83.3555 124.715 83.0859 125.918 83.0859C127.629 83.0859 129.023 83.6094 130.102 84.6562C131.188 85.7031 131.793 87.125 131.918 88.9219L131.941 89.7891C131.941 91.7344 131.398 93.2969 130.312 94.4766C129.227 95.6484 127.77 96.2344 125.941 96.2344C124.113 96.2344 122.652 95.6484 121.559 94.4766C120.473 93.3047 119.93 91.7109 119.93 89.6953V89.543ZM123.316 89.7891C123.316 90.9922 123.543 91.9141 123.996 92.5547C124.449 93.1875 125.098 93.5039 125.941 93.5039C126.762 93.5039 127.402 93.1914 127.863 92.5664C128.324 91.9336 128.555 90.9258 128.555 89.543C128.555 88.3633 128.324 87.4492 127.863 86.8008C127.402 86.1523 126.754 85.8281 125.918 85.8281C125.09 85.8281 124.449 86.1523 123.996 86.8008C123.543 87.4414 123.316 88.4375 123.316 89.7891ZM144.715 96H141.328V92.0156C140.695 92.1328 140.105 92.1914 139.559 92.1914C137.645 92.1914 136.203 91.7852 135.234 90.9727C134.266 90.1602 133.773 88.9727 133.758 87.4102V83.3203H137.145V87.4102C137.152 88.1445 137.332 88.6719 137.684 88.9922C138.035 89.3047 138.66 89.4609 139.559 89.4609C140.121 89.4609 140.711 89.3945 141.328 89.2617V83.3203H144.715V96ZM158.309 96H154.91V91.125H150.703V96H147.316V83.3203H150.703V88.4062H154.91V83.3203H158.309V96ZM164.555 87.0352H166.98C168.074 87.0352 169.035 87.2188 169.863 87.5859C170.691 87.9531 171.324 88.4805 171.762 89.168C172.207 89.8477 172.43 90.6406 172.43 91.5469C172.43 92.8828 171.934 93.9609 170.941 94.7812C169.957 95.5938 168.613 96 166.91 96H161.156V83.3203H164.555V87.0352ZM177.82 96H174.434V83.3203H177.82V96ZM164.555 89.7539V93.293H166.957C167.629 93.293 168.145 93.1367 168.504 92.8242C168.863 92.5117 169.043 92.0859 169.043 91.5469C169.043 91 168.867 90.5664 168.516 90.2461C168.164 89.918 167.645 89.7539 166.957 89.7539H164.555ZM186.645 96.2344C184.785 96.2344 183.27 95.6641 182.098 94.5234C180.934 93.3828 180.352 91.8633 180.352 89.9648V89.6367C180.352 88.3633 180.598 87.2266 181.09 86.2266C181.582 85.2188 182.277 84.4453 183.176 83.9062C184.082 83.3594 185.113 83.0859 186.27 83.0859C188.004 83.0859 189.367 83.6328 190.359 84.7266C191.359 85.8203 191.859 87.3711 191.859 89.3789V90.7617H183.785C183.895 91.5898 184.223 92.2539 184.77 92.7539C185.324 93.2539 186.023 93.5039 186.867 93.5039C188.172 93.5039 189.191 93.0312 189.926 92.0859L191.59 93.9492C191.082 94.668 190.395 95.2305 189.527 95.6367C188.66 96.0352 187.699 96.2344 186.645 96.2344ZM186.258 85.8281C185.586 85.8281 185.039 86.0547 184.617 86.5078C184.203 86.9609 183.938 87.6094 183.82 88.4531H188.531V88.1836C188.516 87.4336 188.312 86.8555 187.922 86.4492C187.531 86.0352 186.977 85.8281 186.258 85.8281ZM207.41 83.3203H210.797V96H207.41V88.1719L203.168 96H199.77V83.3203H203.168V91.1367L207.41 83.3203ZM223.91 86.0391H219.844V96H216.445V86.0391H212.449V83.3203H223.91V86.0391ZM224.742 89.543C224.742 88.2852 224.984 87.1641 225.469 86.1797C225.953 85.1953 226.648 84.4336 227.555 83.8945C228.469 83.3555 229.527 83.0859 230.73 83.0859C232.441 83.0859 233.836 83.6094 234.914 84.6562C236 85.7031 236.605 87.125 236.73 88.9219L236.754 89.7891C236.754 91.7344 236.211 93.2969 235.125 94.4766C234.039 95.6484 232.582 96.2344 230.754 96.2344C228.926 96.2344 227.465 95.6484 226.371 94.4766C225.285 93.3047 224.742 91.7109 224.742 89.6953V89.543ZM228.129 89.7891C228.129 90.9922 228.355 91.9141 228.809 92.5547C229.262 93.1875 229.91 93.5039 230.754 93.5039C231.574 93.5039 232.215 93.1914 232.676 92.5664C233.137 91.9336 233.367 90.9258 233.367 89.543C233.367 88.3633 233.137 87.4492 232.676 86.8008C232.215 86.1523 231.566 85.8281 230.73 85.8281C229.902 85.8281 229.262 86.1523 228.809 86.8008C228.355 87.4414 228.129 88.4375 228.129 89.7891ZM247.477 86.0625H242.227V96H238.84V83.3203H247.477V86.0625ZM256.535 83.3203H259.922V96H256.535V88.1719L252.293 96H248.895V83.3203H252.293V91.1367L256.535 83.3203Z" fill="white"/>
<path d="M49.3277 35.6352V33.3352H50.1609C50.3908 33.3369 50.6109 33.2433 50.7692 33.0769C50.9107 32.9186 50.9909 32.7144 50.9941 32.502L49.5026 4.17195C49.3606 1.87892 47.459 0.0916138 45.1615 0.0916138C42.864 0.0916138 40.9624 1.87892 40.8204 4.17195L39.3288 32.502C39.3219 32.729 39.4025 32.9495 39.5538 33.1188C39.719 33.2697 39.9383 33.3478 40.1621 33.3352H40.9953V35.6352L39.4204 38.7932C39.3016 39.0287 39.3016 39.307 39.4204 39.543L44.4198 49.5418C44.4605 49.6338 44.5203 49.716 44.5947 49.7835C44.692 49.8734 44.8092 49.9393 44.9365 49.9751H45.3946C45.5224 49.9393 45.6395 49.8734 45.7364 49.7835C45.8112 49.716 45.8706 49.6338 45.9113 49.5418L50.9107 39.543C51.0295 39.307 51.0295 39.0287 50.9107 38.7932L49.3277 35.6352ZM41.0368 31.6688L41.3871 25.0029H48.9359L49.3277 31.6688H41.0368ZM42.4868 4.21386C42.4868 2.73657 43.6842 1.53879 45.1615 1.53879C46.6388 1.53879 47.8362 2.73657 47.8362 4.21386L48.8443 23.3783H41.4787L41.5702 21.7118H46.2112C46.6717 21.7118 47.0444 21.3387 47.0444 20.8786C47.0444 20.418 46.6717 20.0454 46.2112 20.0454H41.6536L42.4868 4.21386ZM47.6612 33.3352V35.0017H42.6618V33.3352H47.6612ZM45.9947 45.634V40.0011H46.828C47.2881 40.0011 47.6612 39.628 47.6612 39.1679C47.6612 38.7077 47.2881 38.3347 46.828 38.3347H43.495C43.0349 38.3347 42.6618 38.7077 42.6618 39.1679C42.6618 39.628 43.0349 40.0011 43.495 40.0011H44.3283V45.634L41.0954 39.1679L42.3453 36.6682H47.9777L49.2276 39.1679L45.9947 45.634Z" fill="#FFBB01"/>
<path d="M29.3301 10.8379C29.7902 10.8379 30.1633 10.4648 30.1633 10.0046C30.1633 9.54447 29.7902 9.17139 29.3301 9.17139H7.66594C7.20579 9.17139 6.8327 9.54447 6.8327 10.0046V13.3376C6.8327 13.7977 7.20579 14.1708 7.66594 14.1708H29.3301C29.7902 14.1708 30.1633 13.7977 30.1633 13.3376C30.1633 12.8774 29.7902 12.5043 29.3301 12.5043H8.49917V10.8379H29.3301Z" fill="#FFBB01"/>
<path d="M30.1633 18.337C30.1633 17.8768 29.7902 17.5037 29.3301 17.5037H10.9989C10.5387 17.5037 10.1656 17.8768 10.1656 18.337C10.1656 18.7971 10.5387 19.1702 10.9989 19.1702H29.3301C29.7902 19.1702 30.1633 18.7971 30.1633 18.337Z" fill="#FFBB01"/>
<path d="M5.99945 22.5031C5.99945 22.9633 6.37254 23.3363 6.83269 23.3363H20.1645C20.6246 23.3363 20.9977 22.9633 20.9977 22.5031C20.9977 22.0429 20.6246 21.6699 20.1645 21.6699H6.83269C6.37254 21.6699 5.99945 22.0429 5.99945 22.5031Z" fill="#FFBB01"/>
<path d="M25.1639 21.6699C24.7038 21.6699 24.3307 22.0429 24.3307 22.5031C24.3307 22.9633 24.7038 23.3363 25.1639 23.3363H28.4969C28.957 23.3363 29.3301 22.9633 29.3301 22.5031C29.3301 22.0429 28.957 21.6699 28.4969 21.6699H25.1639Z" fill="#FFBB01"/>
<path d="M17.6648 26.6693C17.6648 26.2091 17.2917 25.8361 16.8315 25.8361H6.83269C6.37254 25.8361 5.99945 26.2091 5.99945 26.6693C5.99945 27.1294 6.37254 27.5025 6.83269 27.5025H16.8315C17.2917 27.5025 17.6648 27.1294 17.6648 26.6693Z" fill="#FFBB01"/>
<path d="M16.8315 30.8356C16.8315 30.3754 16.4584 30.0023 15.9983 30.0023H6.83269C6.37254 30.0023 5.99945 30.3754 5.99945 30.8356C5.99945 31.2957 6.37254 31.6688 6.83269 31.6688H15.9983C16.4584 31.6688 16.8315 31.2957 16.8315 30.8356Z" fill="#FFBB01"/>
<path d="M6.83269 34.1685C6.37254 34.1685 5.99945 34.5415 5.99945 35.0017C5.99945 35.4618 6.37254 35.8349 6.83269 35.8349H12.6653C13.1255 35.8349 13.4986 35.4618 13.4986 35.0017C13.4986 34.5415 13.1255 34.1685 12.6653 34.1685H6.83269Z" fill="#FFBB01"/>
<path d="M33.4962 0.0057373H3.49971C2.11925 0.0057373 1 1.12499 1 2.50545V40.8343C1 42.2148 2.11925 43.334 3.49971 43.334H17.6647C18.1249 43.334 18.498 42.961 18.498 42.5008C18.498 42.0406 18.1249 41.6676 17.6647 41.6676H3.49971C3.03956 41.6676 2.66647 41.2945 2.66647 40.8343V7.50487H34.3295V40.8343C34.3295 41.2945 33.9564 41.6676 33.4962 41.6676H30.9965C30.5364 41.6676 30.1633 42.0406 30.1633 42.5008C30.1633 42.961 30.5364 43.334 30.9965 43.334H33.4962C34.8767 43.334 35.9959 42.2148 35.9959 40.8343V2.50545C35.9959 1.12499 34.8767 0.0057373 33.4962 0.0057373ZM2.66647 5.83839V2.50545C2.66647 2.0453 3.03956 1.67221 3.49971 1.67221H33.4962C33.9564 1.67221 34.3295 2.0453 34.3295 2.50545V5.83839H2.66647Z" fill="#FFBB01"/>
<path d="M24.3306 30.8354C22.9501 30.8354 21.8309 31.9547 21.8309 33.3352C21.8309 34.7156 22.9501 35.8349 24.3306 35.8349C25.711 35.8349 26.8303 34.7156 26.8303 33.3352C26.8303 31.9547 25.711 30.8354 24.3306 30.8354ZM24.3306 34.1684C23.8704 34.1684 23.4973 33.7953 23.4973 33.3352C23.4973 32.875 23.8704 32.5019 24.3306 32.5019C24.7907 32.5019 25.1638 32.875 25.1638 33.3352C25.1638 33.7953 24.7907 34.1684 24.3306 34.1684Z" fill="#FFBB01"/>
<path d="M30.9965 33.3352C30.9953 32.4092 30.4826 31.5592 29.6632 31.1272C29.9358 30.2419 29.6966 29.2788 29.042 28.6238C28.3869 27.9692 27.4239 27.7299 26.5386 28.0025C26.1049 27.1856 25.2558 26.6746 24.3306 26.6746C23.4054 26.6746 22.5563 27.1856 22.1226 28.0025C21.2373 27.7299 20.2743 27.9692 19.6192 28.6238C18.9646 29.2788 18.7254 30.2419 18.998 31.1272C18.1806 31.5609 17.67 32.41 17.67 33.3352C17.67 34.2604 18.1806 35.1099 18.998 35.5432C18.7254 36.4264 18.9626 37.3878 19.6143 38.0429C19.7771 38.2052 19.9622 38.3427 20.1644 38.4514V49.1667C20.166 49.5031 20.3699 49.8054 20.6811 49.9332C20.9911 50.0638 21.3496 49.9946 21.5892 49.7582L24.3306 47.0087L27.072 49.7582C27.229 49.9145 27.4422 50.0011 27.6635 49.9999C27.773 50.0028 27.8812 49.98 27.9801 49.9332C28.2913 49.8054 28.4951 49.5031 28.4968 49.1667V38.4595C28.699 38.3509 28.8841 38.2133 29.0468 38.0514C29.6986 37.396 29.9358 36.435 29.6632 35.5517C30.4851 35.118 30.9985 34.2644 30.9965 33.3352ZM24.9222 45.2422C24.7659 45.0843 24.5527 44.9956 24.3306 44.9956C24.1084 44.9956 23.8953 45.0843 23.739 45.2422L21.8309 47.1584V38.7431L22.1226 38.6678C22.5563 39.4852 23.4054 39.9958 24.3306 39.9958C25.2558 39.9958 26.1049 39.4852 26.5386 38.6678L26.8303 38.7431V47.1584L24.9222 45.2422ZM28.4968 34.1684H28.3552C28.0159 34.1668 27.7091 34.371 27.5801 34.6851C27.452 34.9972 27.5244 35.3556 27.7636 35.5932L27.8637 35.6933C28.1867 36.0184 28.1867 36.5432 27.8637 36.8683C27.7718 36.9647 27.657 37.0363 27.5301 37.0766H27.4052C27.1428 37.1173 26.8767 37.0306 26.6887 36.8431L26.5886 36.743C26.3502 36.5029 25.9901 36.4305 25.6777 36.5603C25.3648 36.6901 25.1618 36.9964 25.1638 37.3349V37.5014C25.1638 37.9615 24.7907 38.3346 24.3306 38.3346C23.8704 38.3346 23.4974 37.9615 23.4974 37.5014V37.3598C23.499 37.0205 23.2947 36.7137 22.9806 36.5847C22.8802 36.5448 22.7723 36.5253 22.6641 36.5265C22.4428 36.5253 22.2296 36.6124 22.0725 36.7682L21.9725 36.8683C21.7845 37.0558 21.5184 37.1425 21.256 37.1014H21.1311C21.0041 37.0615 20.8894 36.9899 20.7975 36.8931C20.4744 36.568 20.4744 36.0432 20.7975 35.7181L20.9061 35.6184C21.1453 35.3804 21.2177 35.022 21.0892 34.7099C20.9602 34.3962 20.6538 34.1916 20.3145 34.1936H20.1644C19.7043 34.1936 19.3312 33.8205 19.3312 33.3604C19.3312 32.8998 19.7043 32.5272 20.1644 32.5272H20.306C20.6453 32.5288 20.9521 32.3241 21.081 32.0105C21.2092 31.6984 21.1368 31.34 20.8976 31.1019L20.7975 31.0023C20.4708 30.6776 20.4691 30.1499 20.7934 29.8232C21.1181 29.4965 21.6458 29.4945 21.9725 29.8191L22.0725 29.9274C22.3102 30.1666 22.669 30.239 22.9806 30.1104C23.2947 29.9815 23.499 29.6751 23.4974 29.3358V29.169C23.4974 28.7088 23.8704 28.3357 24.3306 28.3357C24.7907 28.3357 25.1638 28.7088 25.1638 29.169V29.3106C25.1622 29.6503 25.3664 29.9567 25.6805 30.0856C25.9922 30.2138 26.351 30.1418 26.5886 29.9021L26.6887 29.8025C27.013 29.4758 27.5411 29.4737 27.8678 29.798C28.1945 30.1226 28.1961 30.6503 27.8718 30.977L27.7636 31.0771C27.5244 31.3147 27.452 31.6736 27.5801 31.9852C27.7091 32.2993 28.0159 32.5036 28.3552 32.5019H28.4968C28.9569 32.5019 29.33 32.875 29.33 33.3352C29.33 33.7953 28.9569 34.1684 28.4968 34.1684Z" fill="#FFBB01"/>
</svg>
