<svg width="288" height="206" viewBox="0 0 288 206" fill="none" xmlns="http://www.w3.org/2000/svg">
<path d="M8.75 130.742H3.82031V134.773H9.54688V136H2.32031V124.625H9.46875V125.859H3.82031V129.516H8.75V130.742ZM14.4219 134.977C14.9375 134.977 15.388 134.82 15.7734 134.508C16.1589 134.195 16.3724 133.805 16.4141 133.336H17.7812C17.7552 133.82 17.5885 134.281 17.2812 134.719C16.974 135.156 16.5625 135.505 16.0469 135.766C15.5365 136.026 14.9948 136.156 14.4219 136.156C13.2708 136.156 12.3542 135.773 11.6719 135.008C10.9948 134.237 10.6562 133.185 10.6562 131.852V131.609C10.6562 130.786 10.8073 130.055 11.1094 129.414C11.4115 128.773 11.8438 128.276 12.4062 127.922C12.974 127.568 13.6432 127.391 14.4141 127.391C15.362 127.391 16.1484 127.674 16.7734 128.242C17.4036 128.81 17.7396 129.547 17.7812 130.453H16.4141C16.3724 129.906 16.1641 129.458 15.7891 129.109C15.4193 128.755 14.9609 128.578 14.4141 128.578C13.6797 128.578 13.1094 128.844 12.7031 129.375C12.3021 129.901 12.1016 130.664 12.1016 131.664V131.938C12.1016 132.911 12.3021 133.661 12.7031 134.188C13.1042 134.714 13.6771 134.977 14.4219 134.977ZM26.3359 127.547V136H24.8828V128.742H22.0078L21.8359 131.906C21.7422 133.359 21.4974 134.398 21.1016 135.023C20.7109 135.648 20.0885 135.974 19.2344 136H18.6562V134.727L19.0703 134.695C19.5391 134.643 19.875 134.372 20.0781 133.883C20.2812 133.393 20.4115 132.487 20.4688 131.164L20.625 127.547H26.3359ZM34.125 127.547H35.5703V136H34.125V129.836L30.2266 136H28.7812V127.547H30.2266V133.719L34.125 127.547ZM46.7266 134.086L49.6016 127.547H51.4062V136H49.9609V129.852L47.2266 136H46.2266L43.4375 129.719V136H41.9922V127.547H43.8672L46.7266 134.086ZM55.3125 130.461H57.5078C58.4661 130.471 59.224 130.721 59.7812 131.211C60.3385 131.701 60.6172 132.365 60.6172 133.203C60.6172 134.047 60.3307 134.724 59.7578 135.234C59.1849 135.745 58.4141 136 57.4453 136H53.8672V127.547H55.3125V130.461ZM63.6328 136H62.1797V127.547H63.6328V136ZM55.3125 131.641V134.82H57.4609C58.0026 134.82 58.4219 134.682 58.7188 134.406C59.0156 134.125 59.1641 133.742 59.1641 133.258C59.1641 132.789 59.0182 132.406 58.7266 132.109C58.4401 131.807 58.0365 131.651 57.5156 131.641H55.3125ZM70.0547 134.82L70.5547 134.203C71.1172 133.474 71.4375 132.38 71.5156 130.922L71.6484 127.547H77.0938V134.82H78.1797V138.484H76.7344V136H70.8359V138.484H69.3906L69.3984 134.82H70.0547ZM71.7656 134.82H75.6484V128.883H73.0469L72.9609 130.898C72.8724 132.581 72.474 133.888 71.7656 134.82ZM79.3984 131.695C79.3984 130.867 79.5599 130.122 79.8828 129.461C80.2109 128.799 80.6641 128.289 81.2422 127.93C81.8255 127.57 82.4896 127.391 83.2344 127.391C84.3854 127.391 85.3151 127.789 86.0234 128.586C86.737 129.383 87.0938 130.443 87.0938 131.766V131.867C87.0938 132.69 86.9349 133.43 86.6172 134.086C86.3047 134.737 85.8542 135.245 85.2656 135.609C84.6823 135.974 84.0104 136.156 83.25 136.156C82.1042 136.156 81.1745 135.758 80.4609 134.961C79.7526 134.164 79.3984 133.109 79.3984 131.797V131.695ZM80.8516 131.867C80.8516 132.805 81.0677 133.557 81.5 134.125C81.9375 134.693 82.5208 134.977 83.25 134.977C83.9844 134.977 84.5677 134.69 85 134.117C85.4323 133.539 85.6484 132.732 85.6484 131.695C85.6484 130.768 85.4271 130.018 84.9844 129.445C84.5469 128.867 83.9635 128.578 83.2344 128.578C82.5208 128.578 81.9453 128.862 81.5078 129.43C81.0703 129.997 80.8516 130.81 80.8516 131.867ZM94.3672 128.742H90.4688V136H89.0156V127.547H94.3672V128.742ZM95.0859 131.695C95.0859 130.867 95.2474 130.122 95.5703 129.461C95.8984 128.799 96.3516 128.289 96.9297 127.93C97.513 127.57 98.1771 127.391 98.9219 127.391C100.073 127.391 101.003 127.789 101.711 128.586C102.424 129.383 102.781 130.443 102.781 131.766V131.867C102.781 132.69 102.622 133.43 102.305 134.086C101.992 134.737 101.542 135.245 100.953 135.609C100.37 135.974 99.6979 136.156 98.9375 136.156C97.7917 136.156 96.862 135.758 96.1484 134.961C95.4401 134.164 95.0859 133.109 95.0859 131.797V131.695ZM96.5391 131.867C96.5391 132.805 96.7552 133.557 97.1875 134.125C97.625 134.693 98.2083 134.977 98.9375 134.977C99.6719 134.977 100.255 134.69 100.688 134.117C101.12 133.539 101.336 132.732 101.336 131.695C101.336 130.768 101.115 130.018 100.672 129.445C100.234 128.867 99.651 128.578 98.9219 128.578C98.2083 128.578 97.6328 128.862 97.1953 129.43C96.7578 129.997 96.5391 130.81 96.5391 131.867ZM104.727 136V127.547H108.023C109.148 127.547 110.01 127.745 110.609 128.141C111.214 128.531 111.516 129.107 111.516 129.867C111.516 130.258 111.398 130.612 111.164 130.93C110.93 131.242 110.583 131.482 110.125 131.648C110.635 131.768 111.044 132.003 111.352 132.352C111.664 132.701 111.82 133.117 111.82 133.602C111.82 134.378 111.534 134.971 110.961 135.383C110.393 135.794 109.589 136 108.547 136H104.727ZM106.172 132.289V134.836H108.562C109.167 134.836 109.617 134.724 109.914 134.5C110.216 134.276 110.367 133.961 110.367 133.555C110.367 132.711 109.747 132.289 108.508 132.289H106.172ZM106.172 131.133H108.039C109.393 131.133 110.07 130.737 110.07 129.945C110.07 129.154 109.43 128.745 108.148 128.719H106.172V131.133ZM113.352 131.695C113.352 130.867 113.513 130.122 113.836 129.461C114.164 128.799 114.617 128.289 115.195 127.93C115.779 127.57 116.443 127.391 117.188 127.391C118.339 127.391 119.268 127.789 119.977 128.586C120.69 129.383 121.047 130.443 121.047 131.766V131.867C121.047 132.69 120.888 133.43 120.57 134.086C120.258 134.737 119.807 135.245 119.219 135.609C118.635 135.974 117.964 136.156 117.203 136.156C116.057 136.156 115.128 135.758 114.414 134.961C113.706 134.164 113.352 133.109 113.352 131.797V131.695ZM114.805 131.867C114.805 132.805 115.021 133.557 115.453 134.125C115.891 134.693 116.474 134.977 117.203 134.977C117.938 134.977 118.521 134.69 118.953 134.117C119.385 133.539 119.602 132.732 119.602 131.695C119.602 130.768 119.38 130.018 118.938 129.445C118.5 128.867 117.917 128.578 117.188 128.578C116.474 128.578 115.898 128.862 115.461 129.43C115.023 129.997 114.805 130.81 114.805 131.867ZM130 131.867C130 133.154 129.706 134.19 129.117 134.977C128.529 135.763 127.732 136.156 126.727 136.156C125.701 136.156 124.893 135.831 124.305 135.18V139.25H122.859V127.547H124.18L124.25 128.484C124.839 127.755 125.656 127.391 126.703 127.391C127.719 127.391 128.521 127.773 129.109 128.539C129.703 129.305 130 130.37 130 131.734V131.867ZM128.555 131.703C128.555 130.75 128.352 129.997 127.945 129.445C127.539 128.893 126.982 128.617 126.273 128.617C125.398 128.617 124.742 129.005 124.305 129.781V133.82C124.737 134.591 125.398 134.977 126.289 134.977C126.982 134.977 127.531 134.703 127.938 134.156C128.349 133.604 128.555 132.786 128.555 131.703ZM137.312 127.547H138.758V136H137.312V129.836L133.414 136H131.969V127.547H133.414V133.719L137.312 127.547ZM148.008 127.547V136H146.555V128.742H143.68L143.508 131.906C143.414 133.359 143.169 134.398 142.773 135.023C142.383 135.648 141.76 135.974 140.906 136H140.328V134.727L140.742 134.695C141.211 134.643 141.547 134.372 141.75 133.883C141.953 133.393 142.083 132.487 142.141 131.164L142.297 127.547H148.008ZM155.797 127.547H157.242V136H155.797V129.836L151.898 136H150.453V127.547H151.898V133.719L155.797 127.547ZM162.953 134.977C163.469 134.977 163.919 134.82 164.305 134.508C164.69 134.195 164.904 133.805 164.945 133.336H166.312C166.286 133.82 166.12 134.281 165.812 134.719C165.505 135.156 165.094 135.505 164.578 135.766C164.068 136.026 163.526 136.156 162.953 136.156C161.802 136.156 160.885 135.773 160.203 135.008C159.526 134.237 159.188 133.185 159.188 131.852V131.609C159.188 130.786 159.339 130.055 159.641 129.414C159.943 128.773 160.375 128.276 160.938 127.922C161.505 127.568 162.174 127.391 162.945 127.391C163.893 127.391 164.68 127.674 165.305 128.242C165.935 128.81 166.271 129.547 166.312 130.453H164.945C164.904 129.906 164.695 129.458 164.32 129.109C163.951 128.755 163.492 128.578 162.945 128.578C162.211 128.578 161.641 128.844 161.234 129.375C160.833 129.901 160.633 130.664 160.633 131.664V131.938C160.633 132.911 160.833 133.661 161.234 134.188C161.635 134.714 162.208 134.977 162.953 134.977ZM169.516 130.461H171.711C172.669 130.471 173.427 130.721 173.984 131.211C174.542 131.701 174.82 132.365 174.82 133.203C174.82 134.047 174.534 134.724 173.961 135.234C173.388 135.745 172.617 136 171.648 136H168.07V127.547H169.516V130.461ZM169.516 131.641V134.82H171.664C172.206 134.82 172.625 134.682 172.922 134.406C173.219 134.125 173.367 133.742 173.367 133.258C173.367 132.789 173.221 132.406 172.93 132.109C172.643 131.807 172.24 131.651 171.719 131.641H169.516ZM180.211 131.695C180.211 130.867 180.372 130.122 180.695 129.461C181.023 128.799 181.477 128.289 182.055 127.93C182.638 127.57 183.302 127.391 184.047 127.391C185.198 127.391 186.128 127.789 186.836 128.586C187.549 129.383 187.906 130.443 187.906 131.766V131.867C187.906 132.69 187.747 133.43 187.43 134.086C187.117 134.737 186.667 135.245 186.078 135.609C185.495 135.974 184.823 136.156 184.062 136.156C182.917 136.156 181.987 135.758 181.273 134.961C180.565 134.164 180.211 133.109 180.211 131.797V131.695ZM181.664 131.867C181.664 132.805 181.88 133.557 182.312 134.125C182.75 134.693 183.333 134.977 184.062 134.977C184.797 134.977 185.38 134.69 185.812 134.117C186.245 133.539 186.461 132.732 186.461 131.695C186.461 130.768 186.24 130.018 185.797 129.445C185.359 128.867 184.776 128.578 184.047 128.578C183.333 128.578 182.758 128.862 182.32 129.43C181.883 129.997 181.664 130.81 181.664 131.867ZM193.812 127.547H195.266V134.82H199.156V127.547H200.602V134.82H201.609L201.469 138.508H200.172V136H193.812V127.547ZM206.68 136.156C205.534 136.156 204.602 135.781 203.883 135.031C203.164 134.276 202.805 133.268 202.805 132.008V131.742C202.805 130.904 202.964 130.156 203.281 129.5C203.604 128.839 204.052 128.323 204.625 127.953C205.203 127.578 205.828 127.391 206.5 127.391C207.599 127.391 208.453 127.753 209.062 128.477C209.672 129.201 209.977 130.237 209.977 131.586V132.188H204.25C204.271 133.021 204.513 133.695 204.977 134.211C205.445 134.721 206.039 134.977 206.758 134.977C207.268 134.977 207.701 134.872 208.055 134.664C208.409 134.456 208.719 134.18 208.984 133.836L209.867 134.523C209.159 135.612 208.096 136.156 206.68 136.156ZM206.5 128.578C205.917 128.578 205.427 128.792 205.031 129.219C204.635 129.641 204.391 130.234 204.297 131H208.531V130.891C208.49 130.156 208.292 129.589 207.938 129.188C207.583 128.781 207.104 128.578 206.5 128.578ZM218.562 136H217.117V132.391H213.234V136H211.781V127.547H213.234V131.211H217.117V127.547H218.562V136ZM224.398 136.156C223.253 136.156 222.32 135.781 221.602 135.031C220.883 134.276 220.523 133.268 220.523 132.008V131.742C220.523 130.904 220.682 130.156 221 129.5C221.323 128.839 221.771 128.323 222.344 127.953C222.922 127.578 223.547 127.391 224.219 127.391C225.318 127.391 226.172 127.753 226.781 128.477C227.391 129.201 227.695 130.237 227.695 131.586V132.188H221.969C221.99 133.021 222.232 133.695 222.695 134.211C223.164 134.721 223.758 134.977 224.477 134.977C224.987 134.977 225.419 134.872 225.773 134.664C226.128 134.456 226.438 134.18 226.703 133.836L227.586 134.523C226.878 135.612 225.815 136.156 224.398 136.156ZM224.219 128.578C223.635 128.578 223.146 128.792 222.75 129.219C222.354 129.641 222.109 130.234 222.016 131H226.25V130.891C226.208 130.156 226.01 129.589 225.656 129.188C225.302 128.781 224.823 128.578 224.219 128.578ZM9.00781 164H7.5625V156.742H3.67188V164H2.21875V155.547H9.00781V164ZM18.4688 159.867C18.4688 161.154 18.1745 162.19 17.5859 162.977C16.9974 163.763 16.2005 164.156 15.1953 164.156C14.1693 164.156 13.362 163.831 12.7734 163.18V167.25H11.3281V155.547H12.6484L12.7188 156.484C13.3073 155.755 14.125 155.391 15.1719 155.391C16.1875 155.391 16.9896 155.773 17.5781 156.539C18.1719 157.305 18.4688 158.37 18.4688 159.734V159.867ZM17.0234 159.703C17.0234 158.75 16.8203 157.997 16.4141 157.445C16.0078 156.893 15.4505 156.617 14.7422 156.617C13.8672 156.617 13.2109 157.005 12.7734 157.781V161.82C13.2057 162.591 13.8672 162.977 14.7578 162.977C15.4505 162.977 16 162.703 16.4062 162.156C16.8177 161.604 17.0234 160.786 17.0234 159.703ZM19.9297 159.695C19.9297 158.867 20.0911 158.122 20.4141 157.461C20.7422 156.799 21.1953 156.289 21.7734 155.93C22.3568 155.57 23.0208 155.391 23.7656 155.391C24.9167 155.391 25.8464 155.789 26.5547 156.586C27.2682 157.383 27.625 158.443 27.625 159.766V159.867C27.625 160.69 27.4661 161.43 27.1484 162.086C26.8359 162.737 26.3854 163.245 25.7969 163.609C25.2135 163.974 24.5417 164.156 23.7812 164.156C22.6354 164.156 21.7057 163.758 20.9922 162.961C20.2839 162.164 19.9297 161.109 19.9297 159.797V159.695ZM21.3828 159.867C21.3828 160.805 21.599 161.557 22.0312 162.125C22.4688 162.693 23.0521 162.977 23.7812 162.977C24.5156 162.977 25.099 162.69 25.5312 162.117C25.9635 161.539 26.1797 160.732 26.1797 159.695C26.1797 158.768 25.9583 158.018 25.5156 157.445C25.0781 156.867 24.4948 156.578 23.7656 156.578C23.0521 156.578 22.4766 156.862 22.0391 157.43C21.6016 157.997 21.3828 158.81 21.3828 159.867ZM32.9453 164.156C31.7995 164.156 30.8672 163.781 30.1484 163.031C29.4297 162.276 29.0703 161.268 29.0703 160.008V159.742C29.0703 158.904 29.2292 158.156 29.5469 157.5C29.8698 156.839 30.3177 156.323 30.8906 155.953C31.4688 155.578 32.0938 155.391 32.7656 155.391C33.8646 155.391 34.7188 155.753 35.3281 156.477C35.9375 157.201 36.2422 158.237 36.2422 159.586V160.188H30.5156C30.5365 161.021 30.7786 161.695 31.2422 162.211C31.7109 162.721 32.3047 162.977 33.0234 162.977C33.5339 162.977 33.9661 162.872 34.3203 162.664C34.6745 162.456 34.9844 162.18 35.25 161.836L36.1328 162.523C35.4245 163.612 34.362 164.156 32.9453 164.156ZM32.7656 156.578C32.1823 156.578 31.6927 156.792 31.2969 157.219C30.901 157.641 30.6562 158.234 30.5625 159H34.7969V158.891C34.7552 158.156 34.5573 157.589 34.2031 157.188C33.849 156.781 33.3698 156.578 32.7656 156.578ZM40.5547 160.398H39.5V164H38.0469V155.547H39.5V159.125H40.4453L43.2891 155.547H45.0391L41.6953 159.609L45.3203 164H43.4844L40.5547 160.398ZM52.8438 156.719H50.0078V164H48.5625V156.719H45.7812V155.547H52.8438V156.719ZM59.3438 164C59.2604 163.833 59.1927 163.536 59.1406 163.109C58.4688 163.807 57.6667 164.156 56.7344 164.156C55.901 164.156 55.2161 163.922 54.6797 163.453C54.1484 162.979 53.8828 162.38 53.8828 161.656C53.8828 160.776 54.2161 160.094 54.8828 159.609C55.5547 159.12 56.4974 158.875 57.7109 158.875H59.1172V158.211C59.1172 157.706 58.9661 157.305 58.6641 157.008C58.362 156.706 57.9167 156.555 57.3281 156.555C56.8125 156.555 56.3802 156.685 56.0312 156.945C55.6823 157.206 55.5078 157.521 55.5078 157.891H54.0547C54.0547 157.469 54.2031 157.062 54.5 156.672C54.8021 156.276 55.2083 155.964 55.7188 155.734C56.2344 155.505 56.7995 155.391 57.4141 155.391C58.388 155.391 59.151 155.635 59.7031 156.125C60.2552 156.609 60.5417 157.279 60.5625 158.133V162.023C60.5625 162.799 60.6615 163.417 60.8594 163.875V164H59.3438ZM56.9453 162.898C57.3984 162.898 57.8281 162.781 58.2344 162.547C58.6406 162.312 58.9349 162.008 59.1172 161.633V159.898H57.9844C56.2135 159.898 55.3281 160.417 55.3281 161.453C55.3281 161.906 55.4792 162.26 55.7812 162.516C56.0833 162.771 56.4714 162.898 56.9453 162.898ZM62.7812 166.266L61.9609 165.703C62.4505 165.021 62.7057 164.318 62.7266 163.594V162.289H64.1406V163.422C64.1406 163.948 64.0104 164.474 63.75 165C63.4948 165.526 63.1719 165.948 62.7812 166.266ZM70.0703 164V155.547H73.3672C74.4922 155.547 75.3542 155.745 75.9531 156.141C76.5573 156.531 76.8594 157.107 76.8594 157.867C76.8594 158.258 76.7422 158.612 76.5078 158.93C76.2734 159.242 75.9271 159.482 75.4688 159.648C75.9792 159.768 76.388 160.003 76.6953 160.352C77.0078 160.701 77.1641 161.117 77.1641 161.602C77.1641 162.378 76.8776 162.971 76.3047 163.383C75.737 163.794 74.9323 164 73.8906 164H70.0703ZM71.5156 160.289V162.836H73.9062C74.5104 162.836 74.9609 162.724 75.2578 162.5C75.5599 162.276 75.7109 161.961 75.7109 161.555C75.7109 160.711 75.0911 160.289 73.8516 160.289H71.5156ZM71.5156 159.133H73.3828C74.737 159.133 75.4141 158.737 75.4141 157.945C75.4141 157.154 74.7734 156.745 73.4922 156.719H71.5156V159.133ZM89.9531 164H88.5078V160.391H84.625V164H83.1719V155.547H84.625V159.211H88.5078V155.547H89.9531V164ZM95.7891 164.156C94.6432 164.156 93.7109 163.781 92.9922 163.031C92.2734 162.276 91.9141 161.268 91.9141 160.008V159.742C91.9141 158.904 92.0729 158.156 92.3906 157.5C92.7135 156.839 93.1615 156.323 93.7344 155.953C94.3125 155.578 94.9375 155.391 95.6094 155.391C96.7083 155.391 97.5625 155.753 98.1719 156.477C98.7812 157.201 99.0859 158.237 99.0859 159.586V160.188H93.3594C93.3802 161.021 93.6224 161.695 94.0859 162.211C94.5547 162.721 95.1484 162.977 95.8672 162.977C96.3776 162.977 96.8099 162.872 97.1641 162.664C97.5182 162.456 97.8281 162.18 98.0938 161.836L98.9766 162.523C98.2682 163.612 97.2057 164.156 95.7891 164.156ZM95.6094 156.578C95.026 156.578 94.5365 156.792 94.1406 157.219C93.7448 157.641 93.5 158.234 93.4062 159H97.6406V158.891C97.599 158.156 97.401 157.589 97.0469 157.188C96.6927 156.781 96.2135 156.578 95.6094 156.578ZM104.273 164.156C103.128 164.156 102.195 163.781 101.477 163.031C100.758 162.276 100.398 161.268 100.398 160.008V159.742C100.398 158.904 100.557 158.156 100.875 157.5C101.198 156.839 101.646 156.323 102.219 155.953C102.797 155.578 103.422 155.391 104.094 155.391C105.193 155.391 106.047 155.753 106.656 156.477C107.266 157.201 107.57 158.237 107.57 159.586V160.188H101.844C101.865 161.021 102.107 161.695 102.57 162.211C103.039 162.721 103.633 162.977 104.352 162.977C104.862 162.977 105.294 162.872 105.648 162.664C106.003 162.456 106.312 162.18 106.578 161.836L107.461 162.523C106.753 163.612 105.69 164.156 104.273 164.156ZM104.094 156.578C103.51 156.578 103.021 156.792 102.625 157.219C102.229 157.641 101.984 158.234 101.891 159H106.125V158.891C106.083 158.156 105.885 157.589 105.531 157.188C105.177 156.781 104.698 156.578 104.094 156.578ZM101.57 153.289C101.57 153.055 101.641 152.859 101.781 152.703C101.927 152.542 102.141 152.461 102.422 152.461C102.703 152.461 102.917 152.542 103.062 152.703C103.208 152.859 103.281 153.055 103.281 153.289C103.281 153.523 103.208 153.719 103.062 153.875C102.917 154.031 102.703 154.109 102.422 154.109C102.141 154.109 101.927 154.031 101.781 153.875C101.641 153.719 101.57 153.523 101.57 153.289ZM104.93 153.305C104.93 153.07 105 152.872 105.141 152.711C105.286 152.549 105.5 152.469 105.781 152.469C106.062 152.469 106.276 152.549 106.422 152.711C106.568 152.872 106.641 153.07 106.641 153.305C106.641 153.539 106.568 153.734 106.422 153.891C106.276 154.047 106.062 154.125 105.781 154.125C105.5 154.125 105.286 154.047 105.141 153.891C105 153.734 104.93 153.539 104.93 153.305ZM113.352 164V155.547H116.648C117.773 155.547 118.635 155.745 119.234 156.141C119.839 156.531 120.141 157.107 120.141 157.867C120.141 158.258 120.023 158.612 119.789 158.93C119.555 159.242 119.208 159.482 118.75 159.648C119.26 159.768 119.669 160.003 119.977 160.352C120.289 160.701 120.445 161.117 120.445 161.602C120.445 162.378 120.159 162.971 119.586 163.383C119.018 163.794 118.214 164 117.172 164H113.352ZM114.797 160.289V162.836H117.188C117.792 162.836 118.242 162.724 118.539 162.5C118.841 162.276 118.992 161.961 118.992 161.555C118.992 160.711 118.372 160.289 117.133 160.289H114.797ZM114.797 159.133H116.664C118.018 159.133 118.695 158.737 118.695 157.945C118.695 157.154 118.055 156.745 116.773 156.719H114.797V159.133ZM125.195 158.633L127.07 155.547H128.758L125.992 159.727L128.844 164H127.172L125.219 160.836L123.266 164H121.586L124.438 159.727L121.672 155.547H123.344L125.195 158.633ZM129.758 159.695C129.758 158.867 129.919 158.122 130.242 157.461C130.57 156.799 131.023 156.289 131.602 155.93C132.185 155.57 132.849 155.391 133.594 155.391C134.745 155.391 135.674 155.789 136.383 156.586C137.096 157.383 137.453 158.443 137.453 159.766V159.867C137.453 160.69 137.294 161.43 136.977 162.086C136.664 162.737 136.214 163.245 135.625 163.609C135.042 163.974 134.37 164.156 133.609 164.156C132.464 164.156 131.534 163.758 130.82 162.961C130.112 162.164 129.758 161.109 129.758 159.797V159.695ZM131.211 159.867C131.211 160.805 131.427 161.557 131.859 162.125C132.297 162.693 132.88 162.977 133.609 162.977C134.344 162.977 134.927 162.69 135.359 162.117C135.792 161.539 136.008 160.732 136.008 159.695C136.008 158.768 135.786 158.018 135.344 157.445C134.906 156.867 134.323 156.578 133.594 156.578C132.88 156.578 132.305 156.862 131.867 157.43C131.43 157.997 131.211 158.81 131.211 159.867ZM138.633 162.82L139.133 162.203C139.695 161.474 140.016 160.38 140.094 158.922L140.227 155.547H145.672V162.82H146.758V166.484H145.312V164H139.414V166.484H137.969L137.977 162.82H138.633ZM140.344 162.82H144.227V156.883H141.625L141.539 158.898C141.451 160.581 141.052 161.888 140.344 162.82ZM153.828 155.547H155.273V164H153.828V157.836L149.93 164H148.484V155.547H149.93V161.719L153.828 155.547ZM163.875 156.719H161.039V164H159.594V156.719H156.812V155.547H163.875V156.719ZM169.383 164V155.547H172.68C173.805 155.547 174.667 155.745 175.266 156.141C175.87 156.531 176.172 157.107 176.172 157.867C176.172 158.258 176.055 158.612 175.82 158.93C175.586 159.242 175.24 159.482 174.781 159.648C175.292 159.768 175.701 160.003 176.008 160.352C176.32 160.701 176.477 161.117 176.477 161.602C176.477 162.378 176.19 162.971 175.617 163.383C175.049 163.794 174.245 164 173.203 164H169.383ZM170.828 160.289V162.836H173.219C173.823 162.836 174.273 162.724 174.57 162.5C174.872 162.276 175.023 161.961 175.023 161.555C175.023 160.711 174.404 160.289 173.164 160.289H170.828ZM170.828 159.133H172.695C174.049 159.133 174.727 158.737 174.727 157.945C174.727 157.154 174.086 156.745 172.805 156.719H170.828V159.133ZM181.781 162.977C182.297 162.977 182.747 162.82 183.133 162.508C183.518 162.195 183.732 161.805 183.773 161.336H185.141C185.115 161.82 184.948 162.281 184.641 162.719C184.333 163.156 183.922 163.505 183.406 163.766C182.896 164.026 182.354 164.156 181.781 164.156C180.63 164.156 179.714 163.773 179.031 163.008C178.354 162.237 178.016 161.185 178.016 159.852V159.609C178.016 158.786 178.167 158.055 178.469 157.414C178.771 156.773 179.203 156.276 179.766 155.922C180.333 155.568 181.003 155.391 181.773 155.391C182.721 155.391 183.508 155.674 184.133 156.242C184.763 156.81 185.099 157.547 185.141 158.453H183.773C183.732 157.906 183.523 157.458 183.148 157.109C182.779 156.755 182.32 156.578 181.773 156.578C181.039 156.578 180.469 156.844 180.062 157.375C179.661 157.901 179.461 158.664 179.461 159.664V159.938C179.461 160.911 179.661 161.661 180.062 162.188C180.464 162.714 181.036 162.977 181.781 162.977ZM190.273 164.156C189.128 164.156 188.195 163.781 187.477 163.031C186.758 162.276 186.398 161.268 186.398 160.008V159.742C186.398 158.904 186.557 158.156 186.875 157.5C187.198 156.839 187.646 156.323 188.219 155.953C188.797 155.578 189.422 155.391 190.094 155.391C191.193 155.391 192.047 155.753 192.656 156.477C193.266 157.201 193.57 158.237 193.57 159.586V160.188H187.844C187.865 161.021 188.107 161.695 188.57 162.211C189.039 162.721 189.633 162.977 190.352 162.977C190.862 162.977 191.294 162.872 191.648 162.664C192.003 162.456 192.312 162.18 192.578 161.836L193.461 162.523C192.753 163.612 191.69 164.156 190.273 164.156ZM190.094 156.578C189.51 156.578 189.021 156.792 188.625 157.219C188.229 157.641 187.984 158.234 187.891 159H192.125V158.891C192.083 158.156 191.885 157.589 191.531 157.188C191.177 156.781 190.698 156.578 190.094 156.578ZM187.57 153.289C187.57 153.055 187.641 152.859 187.781 152.703C187.927 152.542 188.141 152.461 188.422 152.461C188.703 152.461 188.917 152.542 189.062 152.703C189.208 152.859 189.281 153.055 189.281 153.289C189.281 153.523 189.208 153.719 189.062 153.875C188.917 154.031 188.703 154.109 188.422 154.109C188.141 154.109 187.927 154.031 187.781 153.875C187.641 153.719 187.57 153.523 187.57 153.289ZM190.93 153.305C190.93 153.07 191 152.872 191.141 152.711C191.286 152.549 191.5 152.469 191.781 152.469C192.062 152.469 192.276 152.549 192.422 152.711C192.568 152.872 192.641 153.07 192.641 153.305C192.641 153.539 192.568 153.734 192.422 153.891C192.276 154.047 192.062 154.125 191.781 154.125C191.5 154.125 191.286 154.047 191.141 153.891C191 153.734 190.93 153.539 190.93 153.305ZM195.203 163.242C195.203 162.992 195.276 162.784 195.422 162.617C195.573 162.451 195.797 162.367 196.094 162.367C196.391 162.367 196.615 162.451 196.766 162.617C196.922 162.784 197 162.992 197 163.242C197 163.482 196.922 163.682 196.766 163.844C196.615 164.005 196.391 164.086 196.094 164.086C195.797 164.086 195.573 164.005 195.422 163.844C195.276 163.682 195.203 163.482 195.203 163.242ZM195.211 156.344C195.211 156.094 195.284 155.885 195.43 155.719C195.581 155.552 195.805 155.469 196.102 155.469C196.398 155.469 196.622 155.552 196.773 155.719C196.93 155.885 197.008 156.094 197.008 156.344C197.008 156.583 196.93 156.784 196.773 156.945C196.622 157.107 196.398 157.188 196.102 157.188C195.805 157.188 195.581 157.107 195.43 156.945C195.284 156.784 195.211 156.583 195.211 156.344ZM203.023 162.82L203.523 162.203C204.086 161.474 204.406 160.38 204.484 158.922L204.617 155.547H210.062V162.82H211.148V166.484H209.703V164H203.805V166.484H202.359L202.367 162.82H203.023ZM204.734 162.82H208.617V156.883H206.016L205.93 158.898C205.841 160.581 205.443 161.888 204.734 162.82ZM212.367 159.695C212.367 158.867 212.529 158.122 212.852 157.461C213.18 156.799 213.633 156.289 214.211 155.93C214.794 155.57 215.458 155.391 216.203 155.391C217.354 155.391 218.284 155.789 218.992 156.586C219.706 157.383 220.062 158.443 220.062 159.766V159.867C220.062 160.69 219.904 161.43 219.586 162.086C219.273 162.737 218.823 163.245 218.234 163.609C217.651 163.974 216.979 164.156 216.219 164.156C215.073 164.156 214.143 163.758 213.43 162.961C212.721 162.164 212.367 161.109 212.367 159.797V159.695ZM213.82 159.867C213.82 160.805 214.036 161.557 214.469 162.125C214.906 162.693 215.49 162.977 216.219 162.977C216.953 162.977 217.536 162.69 217.969 162.117C218.401 161.539 218.617 160.732 218.617 159.695C218.617 158.768 218.396 158.018 217.953 157.445C217.516 156.867 216.932 156.578 216.203 156.578C215.49 156.578 214.914 156.862 214.477 157.43C214.039 157.997 213.82 158.81 213.82 159.867ZM226.742 162.086L229.617 155.547H231.422V164H229.977V157.852L227.242 164H226.242L223.453 157.719V164H222.008V155.547H223.883L226.742 162.086ZM237.258 164.156C236.112 164.156 235.18 163.781 234.461 163.031C233.742 162.276 233.383 161.268 233.383 160.008V159.742C233.383 158.904 233.542 158.156 233.859 157.5C234.182 156.839 234.63 156.323 235.203 155.953C235.781 155.578 236.406 155.391 237.078 155.391C238.177 155.391 239.031 155.753 239.641 156.477C240.25 157.201 240.555 158.237 240.555 159.586V160.188H234.828C234.849 161.021 235.091 161.695 235.555 162.211C236.023 162.721 236.617 162.977 237.336 162.977C237.846 162.977 238.279 162.872 238.633 162.664C238.987 162.456 239.297 162.18 239.562 161.836L240.445 162.523C239.737 163.612 238.674 164.156 237.258 164.156ZM237.078 156.578C236.495 156.578 236.005 156.792 235.609 157.219C235.214 157.641 234.969 158.234 234.875 159H239.109V158.891C239.068 158.156 238.87 157.589 238.516 157.188C238.161 156.781 237.682 156.578 237.078 156.578ZM249.141 164H247.695V160.391H243.812V164H242.359V155.547H243.812V159.211H247.695V155.547H249.141V164ZM260.906 155.547H262.352V164H260.906V157.836L257.008 164H255.562V155.547H257.008V161.719L260.906 155.547ZM4.92969 186.633L6.80469 183.547H8.49219L5.72656 187.727L8.57812 192H6.90625L4.95312 188.836L3 192H1.32031L4.17188 187.727L1.40625 183.547H3.07812L4.92969 186.633ZM9.49219 187.695C9.49219 186.867 9.65365 186.122 9.97656 185.461C10.3047 184.799 10.7578 184.289 11.3359 183.93C11.9193 183.57 12.5833 183.391 13.3281 183.391C14.4792 183.391 15.4089 183.789 16.1172 184.586C16.8307 185.383 17.1875 186.443 17.1875 187.766V187.867C17.1875 188.69 17.0286 189.43 16.7109 190.086C16.3984 190.737 15.9479 191.245 15.3594 191.609C14.776 191.974 14.1042 192.156 13.3438 192.156C12.1979 192.156 11.2682 191.758 10.5547 190.961C9.84635 190.164 9.49219 189.109 9.49219 187.797V187.695ZM10.9453 187.867C10.9453 188.805 11.1615 189.557 11.5938 190.125C12.0312 190.693 12.6146 190.977 13.3438 190.977C14.0781 190.977 14.6615 190.69 15.0938 190.117C15.526 189.539 15.7422 188.732 15.7422 187.695C15.7422 186.768 15.5208 186.018 15.0781 185.445C14.6406 184.867 14.0573 184.578 13.3281 184.578C12.6146 184.578 12.0391 184.862 11.6016 185.43C11.1641 185.997 10.9453 186.81 10.9453 187.867ZM22.3906 190.977C22.9062 190.977 23.3568 190.82 23.7422 190.508C24.1276 190.195 24.3411 189.805 24.3828 189.336H25.75C25.724 189.82 25.5573 190.281 25.25 190.719C24.9427 191.156 24.5312 191.505 24.0156 191.766C23.5052 192.026 22.9635 192.156 22.3906 192.156C21.2396 192.156 20.3229 191.773 19.6406 191.008C18.9635 190.237 18.625 189.185 18.625 187.852V187.609C18.625 186.786 18.776 186.055 19.0781 185.414C19.3802 184.773 19.8125 184.276 20.375 183.922C20.9427 183.568 21.612 183.391 22.3828 183.391C23.3307 183.391 24.1172 183.674 24.7422 184.242C25.3724 184.81 25.7083 185.547 25.75 186.453H24.3828C24.3411 185.906 24.1328 185.458 23.7578 185.109C23.388 184.755 22.9297 184.578 22.3828 184.578C21.6484 184.578 21.0781 184.844 20.6719 185.375C20.2708 185.901 20.0703 186.664 20.0703 187.664V187.938C20.0703 188.911 20.2708 189.661 20.6719 190.188C21.0729 190.714 21.6458 190.977 22.3906 190.977ZM33.6562 184.719H30.8203V192H29.375V184.719H26.5938V183.547H33.6562V184.719ZM40.5312 183.547H41.9766V192H40.5312V185.836L36.6328 192H35.1875V183.547H36.6328V189.719L40.5312 183.547ZM51.2031 192H49.7578V188.391H45.875V192H44.4219V183.547H45.875V187.211H49.7578V183.547H51.2031V192ZM58.9922 184.742H55.0938V192H53.6406V183.547H58.9922V184.742ZM71.125 192H69.6797V188.391H65.7969V192H64.3438V183.547H65.7969V187.211H69.6797V183.547H71.125V192ZM78.6719 192C78.5885 191.833 78.5208 191.536 78.4688 191.109C77.7969 191.807 76.9948 192.156 76.0625 192.156C75.2292 192.156 74.5443 191.922 74.0078 191.453C73.4766 190.979 73.2109 190.38 73.2109 189.656C73.2109 188.776 73.5443 188.094 74.2109 187.609C74.8828 187.12 75.8255 186.875 77.0391 186.875H78.4453V186.211C78.4453 185.706 78.2943 185.305 77.9922 185.008C77.6901 184.706 77.2448 184.555 76.6562 184.555C76.1406 184.555 75.7083 184.685 75.3594 184.945C75.0104 185.206 74.8359 185.521 74.8359 185.891H73.3828C73.3828 185.469 73.5312 185.062 73.8281 184.672C74.1302 184.276 74.5365 183.964 75.0469 183.734C75.5625 183.505 76.1276 183.391 76.7422 183.391C77.7161 183.391 78.4792 183.635 79.0312 184.125C79.5833 184.609 79.8698 185.279 79.8906 186.133V190.023C79.8906 190.799 79.9896 191.417 80.1875 191.875V192H78.6719ZM76.2734 190.898C76.7266 190.898 77.1562 190.781 77.5625 190.547C77.9688 190.312 78.263 190.008 78.4453 189.633V187.898H77.3125C75.5417 187.898 74.6562 188.417 74.6562 189.453C74.6562 189.906 74.8073 190.26 75.1094 190.516C75.4115 190.771 75.7995 190.898 76.2734 190.898ZM91.5859 184.742H87.6875V192H86.2344V183.547H91.5859V184.742ZM92.3047 187.695C92.3047 186.867 92.4661 186.122 92.7891 185.461C93.1172 184.799 93.5703 184.289 94.1484 183.93C94.7318 183.57 95.3958 183.391 96.1406 183.391C97.2917 183.391 98.2214 183.789 98.9297 184.586C99.6432 185.383 100 186.443 100 187.766V187.867C100 188.69 99.8411 189.43 99.5234 190.086C99.2109 190.737 98.7604 191.245 98.1719 191.609C97.5885 191.974 96.9167 192.156 96.1562 192.156C95.0104 192.156 94.0807 191.758 93.3672 190.961C92.6589 190.164 92.3047 189.109 92.3047 187.797V187.695ZM93.7578 187.867C93.7578 188.805 93.974 189.557 94.4062 190.125C94.8438 190.693 95.4271 190.977 96.1562 190.977C96.8906 190.977 97.474 190.69 97.9062 190.117C98.3385 189.539 98.5547 188.732 98.5547 187.695C98.5547 186.768 98.3333 186.018 97.8906 185.445C97.4531 184.867 96.8698 184.578 96.1406 184.578C95.4271 184.578 94.8516 184.862 94.4141 185.43C93.9766 185.997 93.7578 186.81 93.7578 187.867ZM101.18 190.82L101.68 190.203C102.242 189.474 102.562 188.38 102.641 186.922L102.773 183.547H108.219V190.82H109.305V194.484H107.859V192H101.961V194.484H100.516L100.523 190.82H101.18ZM102.891 190.82H106.773V184.883H104.172L104.086 186.898C103.997 188.581 103.599 189.888 102.891 190.82ZM119.016 185.898H122.188V187.266H119.016V190.859H117.562V187.266H114.391V185.898H117.562V182.578H119.016V185.898ZM131.5 186.93C130.214 186.56 129.276 186.107 128.688 185.57C128.104 185.029 127.812 184.362 127.812 183.57C127.812 182.674 128.169 181.935 128.883 181.352C129.602 180.763 130.534 180.469 131.68 180.469C132.461 180.469 133.156 180.62 133.766 180.922C134.38 181.224 134.854 181.641 135.188 182.172C135.526 182.703 135.695 183.284 135.695 183.914H134.188C134.188 183.227 133.969 182.688 133.531 182.297C133.094 181.901 132.477 181.703 131.68 181.703C130.94 181.703 130.362 181.867 129.945 182.195C129.534 182.518 129.328 182.969 129.328 183.547C129.328 184.01 129.523 184.404 129.914 184.727C130.31 185.044 130.979 185.336 131.922 185.602C132.87 185.867 133.609 186.161 134.141 186.484C134.677 186.802 135.073 187.174 135.328 187.602C135.589 188.029 135.719 188.531 135.719 189.109C135.719 190.031 135.359 190.771 134.641 191.328C133.922 191.88 132.961 192.156 131.758 192.156C130.977 192.156 130.247 192.008 129.57 191.711C128.893 191.409 128.37 190.997 128 190.477C127.635 189.956 127.453 189.365 127.453 188.703H128.961C128.961 189.391 129.214 189.935 129.719 190.336C130.229 190.732 130.909 190.93 131.758 190.93C132.549 190.93 133.156 190.768 133.578 190.445C134 190.122 134.211 189.682 134.211 189.125C134.211 188.568 134.016 188.138 133.625 187.836C133.234 187.529 132.526 187.227 131.5 186.93ZM141 186.93C139.714 186.56 138.776 186.107 138.188 185.57C137.604 185.029 137.312 184.362 137.312 183.57C137.312 182.674 137.669 181.935 138.383 181.352C139.102 180.763 140.034 180.469 141.18 180.469C141.961 180.469 142.656 180.62 143.266 180.922C143.88 181.224 144.354 181.641 144.688 182.172C145.026 182.703 145.195 183.284 145.195 183.914H143.688C143.688 183.227 143.469 182.688 143.031 182.297C142.594 181.901 141.977 181.703 141.18 181.703C140.44 181.703 139.862 181.867 139.445 182.195C139.034 182.518 138.828 182.969 138.828 183.547C138.828 184.01 139.023 184.404 139.414 184.727C139.81 185.044 140.479 185.336 141.422 185.602C142.37 185.867 143.109 186.161 143.641 186.484C144.177 186.802 144.573 187.174 144.828 187.602C145.089 188.029 145.219 188.531 145.219 189.109C145.219 190.031 144.859 190.771 144.141 191.328C143.422 191.88 142.461 192.156 141.258 192.156C140.477 192.156 139.747 192.008 139.07 191.711C138.393 191.409 137.87 190.997 137.5 190.477C137.135 189.956 136.953 189.365 136.953 188.703H138.461C138.461 189.391 138.714 189.935 139.219 190.336C139.729 190.732 140.409 190.93 141.258 190.93C142.049 190.93 142.656 190.768 143.078 190.445C143.5 190.122 143.711 189.682 143.711 189.125C143.711 188.568 143.516 188.138 143.125 187.836C142.734 187.529 142.026 187.227 141 186.93ZM148.656 190.773H154.047V192H147.148V180.625H148.656V190.773ZM162.891 190.977C163.406 190.977 163.857 190.82 164.242 190.508C164.628 190.195 164.841 189.805 164.883 189.336H166.25C166.224 189.82 166.057 190.281 165.75 190.719C165.443 191.156 165.031 191.505 164.516 191.766C164.005 192.026 163.464 192.156 162.891 192.156C161.74 192.156 160.823 191.773 160.141 191.008C159.464 190.237 159.125 189.185 159.125 187.852V187.609C159.125 186.786 159.276 186.055 159.578 185.414C159.88 184.773 160.312 184.276 160.875 183.922C161.443 183.568 162.112 183.391 162.883 183.391C163.831 183.391 164.617 183.674 165.242 184.242C165.872 184.81 166.208 185.547 166.25 186.453H164.883C164.841 185.906 164.633 185.458 164.258 185.109C163.888 184.755 163.43 184.578 162.883 184.578C162.148 184.578 161.578 184.844 161.172 185.375C160.771 185.901 160.57 186.664 160.57 187.664V187.938C160.57 188.911 160.771 189.661 161.172 190.188C161.573 190.714 162.146 190.977 162.891 190.977ZM171.383 192.156C170.237 192.156 169.305 191.781 168.586 191.031C167.867 190.276 167.508 189.268 167.508 188.008V187.742C167.508 186.904 167.667 186.156 167.984 185.5C168.307 184.839 168.755 184.323 169.328 183.953C169.906 183.578 170.531 183.391 171.203 183.391C172.302 183.391 173.156 183.753 173.766 184.477C174.375 185.201 174.68 186.237 174.68 187.586V188.188H168.953C168.974 189.021 169.216 189.695 169.68 190.211C170.148 190.721 170.742 190.977 171.461 190.977C171.971 190.977 172.404 190.872 172.758 190.664C173.112 190.456 173.422 190.18 173.688 189.836L174.57 190.523C173.862 191.612 172.799 192.156 171.383 192.156ZM171.203 184.578C170.62 184.578 170.13 184.792 169.734 185.219C169.339 185.641 169.094 186.234 169 187H173.234V186.891C173.193 186.156 172.995 185.589 172.641 185.188C172.286 184.781 171.807 184.578 171.203 184.578ZM183.5 187.867C183.5 189.154 183.206 190.19 182.617 190.977C182.029 191.763 181.232 192.156 180.227 192.156C179.201 192.156 178.393 191.831 177.805 191.18V195.25H176.359V183.547H177.68L177.75 184.484C178.339 183.755 179.156 183.391 180.203 183.391C181.219 183.391 182.021 183.773 182.609 184.539C183.203 185.305 183.5 186.37 183.5 187.734V187.867ZM182.055 187.703C182.055 186.75 181.852 185.997 181.445 185.445C181.039 184.893 180.482 184.617 179.773 184.617C178.898 184.617 178.242 185.005 177.805 185.781V189.82C178.237 190.591 178.898 190.977 179.789 190.977C180.482 190.977 181.031 190.703 181.438 190.156C181.849 189.604 182.055 188.786 182.055 187.703ZM191 184.719H188.164V192H186.719V184.719H183.938V183.547H191V184.719ZM197.875 183.547H199.32V192H197.875V185.836L193.977 192H192.531V183.547H193.977V189.719L197.875 183.547ZM201.328 187.93C201.328 186.518 201.602 185.409 202.148 184.602C202.695 183.794 203.445 183.391 204.398 183.391C204.841 183.391 205.229 183.466 205.562 183.617V180H207.008V183.664C207.372 183.482 207.799 183.391 208.289 183.391C209.247 183.391 210 183.794 210.547 184.602C211.094 185.409 211.367 186.573 211.367 188.094C211.367 189.339 211.094 190.328 210.547 191.062C210.005 191.797 209.258 192.164 208.305 192.164C207.799 192.164 207.367 192.081 207.008 191.914V195.25H205.562V191.938C205.219 192.089 204.826 192.164 204.383 192.164C203.435 192.164 202.688 191.797 202.141 191.062C201.599 190.328 201.328 189.323 201.328 188.047V187.93ZM209.922 187.93C209.922 186.867 209.74 186.044 209.375 185.461C209.01 184.872 208.508 184.578 207.867 184.578C207.539 184.578 207.253 184.63 207.008 184.734V190.852C207.242 190.94 207.534 190.984 207.883 190.984C208.529 190.984 209.029 190.734 209.383 190.234C209.742 189.734 209.922 188.966 209.922 187.93ZM202.773 188.094C202.773 189.042 202.943 189.76 203.281 190.25C203.62 190.74 204.107 190.984 204.742 190.984C205.044 190.984 205.318 190.938 205.562 190.844V184.711C205.344 184.622 205.076 184.578 204.758 184.578C204.122 184.578 203.633 184.862 203.289 185.43C202.945 185.997 202.773 186.885 202.773 188.094ZM218.719 183.547H220.164V192H218.719V185.836L214.82 192H213.375V183.547H214.82V189.719L218.719 183.547ZM225.117 188.398H224.062V192H222.609V183.547H224.062V187.125H225.008L227.852 183.547H229.602L226.258 187.609L229.883 192H228.047L225.117 188.398ZM236.344 192C236.26 191.833 236.193 191.536 236.141 191.109C235.469 191.807 234.667 192.156 233.734 192.156C232.901 192.156 232.216 191.922 231.68 191.453C231.148 190.979 230.883 190.38 230.883 189.656C230.883 188.776 231.216 188.094 231.883 187.609C232.555 187.12 233.497 186.875 234.711 186.875H236.117V186.211C236.117 185.706 235.966 185.305 235.664 185.008C235.362 184.706 234.917 184.555 234.328 184.555C233.812 184.555 233.38 184.685 233.031 184.945C232.682 185.206 232.508 185.521 232.508 185.891H231.055C231.055 185.469 231.203 185.062 231.5 184.672C231.802 184.276 232.208 183.964 232.719 183.734C233.234 183.505 233.799 183.391 234.414 183.391C235.388 183.391 236.151 183.635 236.703 184.125C237.255 184.609 237.542 185.279 237.562 186.133V190.023C237.562 190.799 237.661 191.417 237.859 191.875V192H236.344ZM233.945 190.898C234.398 190.898 234.828 190.781 235.234 190.547C235.641 190.312 235.935 190.008 236.117 189.633V187.898H234.984C233.214 187.898 232.328 188.417 232.328 189.453C232.328 189.906 232.479 190.26 232.781 190.516C233.083 190.771 233.471 190.898 233.945 190.898ZM245.984 184.719H243.148V192H241.703V184.719H238.922V183.547H245.984V184.719ZM247.422 191.242C247.422 190.992 247.495 190.784 247.641 190.617C247.792 190.451 248.016 190.367 248.312 190.367C248.609 190.367 248.833 190.451 248.984 190.617C249.141 190.784 249.219 190.992 249.219 191.242C249.219 191.482 249.141 191.682 248.984 191.844C248.833 192.005 248.609 192.086 248.312 192.086C248.016 192.086 247.792 192.005 247.641 191.844C247.495 191.682 247.422 191.482 247.422 191.242Z" fill="white"/>
<path d="M7.62891 83.8203L10.8281 77.9375H14.8711L9.90234 86.3984L15 95H10.9102L7.62891 89.0234L4.34766 95H0.257812L5.35547 86.3984L0.386719 77.9375H4.42969L7.62891 83.8203ZM15.7734 88.543C15.7734 87.2852 16.0156 86.1641 16.5 85.1797C16.9844 84.1953 17.6797 83.4336 18.5859 82.8945C19.5 82.3555 20.5586 82.0859 21.7617 82.0859C23.4727 82.0859 24.8672 82.6094 25.9453 83.6562C27.0312 84.7031 27.6367 86.125 27.7617 87.9219L27.7852 88.7891C27.7852 90.7344 27.2422 92.2969 26.1562 93.4766C25.0703 94.6484 23.6133 95.2344 21.7852 95.2344C19.957 95.2344 18.4961 94.6484 17.4023 93.4766C16.3164 92.3047 15.7734 90.7109 15.7734 88.6953V88.543ZM19.1602 88.7891C19.1602 89.9922 19.3867 90.9141 19.8398 91.5547C20.293 92.1875 20.9414 92.5039 21.7852 92.5039C22.6055 92.5039 23.2461 92.1914 23.707 91.5664C24.168 90.9336 24.3984 89.9258 24.3984 88.543C24.3984 87.3633 24.168 86.4492 23.707 85.8008C23.2461 85.1523 22.5977 84.8281 21.7617 84.8281C20.9336 84.8281 20.293 85.1523 19.8398 85.8008C19.3867 86.4414 19.1602 87.4375 19.1602 88.7891ZM35.1445 92.5039C35.7695 92.5039 36.2773 92.332 36.668 91.9883C37.0586 91.6445 37.2617 91.1875 37.2773 90.6172H40.4531C40.4453 91.4766 40.2109 92.2656 39.75 92.9844C39.2891 93.6953 38.6562 94.25 37.8516 94.6484C37.0547 95.0391 36.1719 95.2344 35.2031 95.2344C33.3906 95.2344 31.9609 94.6602 30.9141 93.5117C29.8672 92.3555 29.3438 90.7617 29.3438 88.7305V88.5078C29.3438 86.5547 29.8633 84.9961 30.9023 83.832C31.9414 82.668 33.3672 82.0859 35.1797 82.0859C36.7656 82.0859 38.0352 82.5391 38.9883 83.4453C39.9492 84.3438 40.4375 85.543 40.4531 87.043H37.2773C37.2617 86.3867 37.0586 85.8555 36.668 85.4492C36.2773 85.0352 35.7617 84.8281 35.1211 84.8281C34.332 84.8281 33.7344 85.1172 33.3281 85.6953C32.9297 86.2656 32.7305 87.1953 32.7305 88.4844V88.8359C32.7305 90.1406 32.9297 91.0781 33.3281 91.6484C33.7266 92.2188 34.332 92.5039 35.1445 92.5039ZM52.9102 85.0391H48.8438V95H45.4453V85.0391H41.4492V82.3203H52.9102V85.0391ZM62.2617 82.3203H65.6484V95H62.2617V87.1719L58.0195 95H54.6211V82.3203H58.0195V90.1367L62.2617 82.3203ZM79.2305 95H75.832V90.125H71.625V95H68.2383V82.3203H71.625V87.4062H75.832V82.3203H79.2305V95ZM90.4922 85.0625H85.2422V95H81.8555V82.3203H90.4922V85.0625ZM105.527 82.3203H108.914V95H105.527V87.1719L101.285 95H97.8867V82.3203H101.285V90.1367L105.527 82.3203ZM117.656 92.2695C118.422 91.457 118.941 90.6523 119.215 89.8555C119.488 89.0586 119.641 87.9297 119.672 86.4688L119.766 82.3203H129.094V92.2695H130.922V98.8086H127.535V95H120.023V98.8086H116.566V92.2695H117.656ZM121.652 92.2695H125.719V85.1211H123.082L123.059 86.6445C122.988 88.9727 122.52 90.8477 121.652 92.2695ZM132.117 88.543C132.117 87.2852 132.359 86.1641 132.844 85.1797C133.328 84.1953 134.023 83.4336 134.93 82.8945C135.844 82.3555 136.902 82.0859 138.105 82.0859C139.816 82.0859 141.211 82.6094 142.289 83.6562C143.375 84.7031 143.98 86.125 144.105 87.9219L144.129 88.7891C144.129 90.7344 143.586 92.2969 142.5 93.4766C141.414 94.6484 139.957 95.2344 138.129 95.2344C136.301 95.2344 134.84 94.6484 133.746 93.4766C132.66 92.3047 132.117 90.7109 132.117 88.6953V88.543ZM135.504 88.7891C135.504 89.9922 135.73 90.9141 136.184 91.5547C136.637 92.1875 137.285 92.5039 138.129 92.5039C138.949 92.5039 139.59 92.1914 140.051 91.5664C140.512 90.9336 140.742 89.9258 140.742 88.543C140.742 87.3633 140.512 86.4492 140.051 85.8008C139.59 85.1523 138.941 84.8281 138.105 84.8281C137.277 84.8281 136.637 85.1523 136.184 85.8008C135.73 86.4414 135.504 87.4375 135.504 88.7891ZM153.938 91.0039L157.254 82.3203H161.496V95H158.109V87.2188L155.074 95H152.801L149.824 87.3477V95H146.438V82.3203H150.645L153.938 91.0039ZM170.285 95.2344C168.426 95.2344 166.91 94.6641 165.738 93.5234C164.574 92.3828 163.992 90.8633 163.992 88.9648V88.6367C163.992 87.3633 164.238 86.2266 164.73 85.2266C165.223 84.2188 165.918 83.4453 166.816 82.9062C167.723 82.3594 168.754 82.0859 169.91 82.0859C171.645 82.0859 173.008 82.6328 174 83.7266C175 84.8203 175.5 86.3711 175.5 88.3789V89.7617H167.426C167.535 90.5898 167.863 91.2539 168.41 91.7539C168.965 92.2539 169.664 92.5039 170.508 92.5039C171.812 92.5039 172.832 92.0312 173.566 91.0859L175.23 92.9492C174.723 93.668 174.035 94.2305 173.168 94.6367C172.301 95.0352 171.34 95.2344 170.285 95.2344ZM169.898 84.8281C169.227 84.8281 168.68 85.0547 168.258 85.5078C167.844 85.9609 167.578 86.6094 167.461 87.4531H172.172V87.1836C172.156 86.4336 171.953 85.8555 171.562 85.4492C171.172 85.0352 170.617 84.8281 169.898 84.8281ZM188.426 95H185.027V90.125H180.82V95H177.434V82.3203H180.82V87.4062H185.027V82.3203H188.426V95Z" fill="white"/>
<path d="M50.1667 24.1667H31.1082C30.648 24.1667 30.2749 24.5398 30.2749 25C30.2749 25.4602 30.648 25.8334 31.1082 25.8334H49.3333V34.1667H45.1667V28.3334C45.1667 27.8731 44.7935 27.5 44.3333 27.5C43.8731 27.5 43.5 27.8731 43.5 28.3334V34.1667H21V25.8334H26C26.4602 25.8334 26.8333 25.4602 26.8333 25C26.8333 24.5398 26.4602 24.1667 26 24.1667H20.1667C19.7065 24.1667 19.3333 24.5398 19.3333 25V35C19.3333 35.4602 19.7065 35.8334 20.1667 35.8334H27.6667V37.5H20.1667C19.7065 37.5 19.3333 37.8731 19.3333 38.3334V44.1667H16.8333V43.3334C16.8333 42.8731 16.4602 42.5 16 42.5H13.5V38.3334C13.5 37.8731 13.1269 37.5 12.6667 37.5C12.2065 37.5 11.8333 37.8731 11.8333 38.3334V43.3334C11.8333 43.7936 12.2065 44.1667 12.6667 44.1667H15.1667V45.8334H6.83333V44.1667H9.33333C9.79354 44.1667 10.1667 43.7936 10.1667 43.3334V38.3334C10.1667 37.8731 9.79354 37.5 9.33333 37.5C8.87313 37.5 8.5 37.8731 8.5 38.3334V42.5H6C5.53979 42.5 5.16667 42.8731 5.16667 43.3334V44.1667H1.83333C1.37313 44.1667 1 44.5398 1 45C1 45.4602 1.37313 45.8334 1.83333 45.8334H5.16667V46.6667C5.16667 47.1269 5.53979 47.5 6 47.5H16C16.4602 47.5 16.8333 47.1269 16.8333 46.6667V45.8334H19.3333V48.3334C19.3333 48.7936 19.7065 49.1667 20.1667 49.1667H50.1667C50.6269 49.1667 51 48.7936 51 48.3334V38.3334C51 37.8731 50.6269 37.5 50.1667 37.5H42.6667V35.8334H50.1667C50.6269 35.8334 51 35.4602 51 35V25C51 24.5398 50.6269 24.1667 50.1667 24.1667ZM49.3333 47.5H21V39.1667H43.5V45C43.5 45.4602 43.8731 45.8334 44.3333 45.8334C44.7935 45.8334 45.1667 45.4602 45.1667 45V39.1667H49.3333V47.5ZM41 37.5H29.3333V35.8334H41V37.5Z" fill="#FFBB01"/>
<path d="M25.9999 27.5C24.6193 27.5 23.4999 28.6194 23.4999 30C23.4999 31.381 24.6193 32.5 25.9999 32.5C27.3805 32.5 28.4999 31.381 28.4999 30C28.4999 28.6194 27.3805 27.5 25.9999 27.5ZM25.9999 30.8333C25.5397 30.8333 25.1665 30.4602 25.1665 30C25.1665 29.5398 25.5397 29.1667 25.9999 29.1667C26.4601 29.1667 26.8332 29.5398 26.8332 30C26.8332 30.4602 26.4601 30.8333 25.9999 30.8333Z" fill="#FFBB01"/>
<path d="M31.0001 32.5C31.4603 32.5 31.8334 32.1269 31.8334 31.6667V28.3333C31.8334 27.8731 31.4603 27.5 31.0001 27.5C30.5399 27.5 30.1667 27.8731 30.1667 28.3333V31.6667C30.1667 32.1269 30.5399 32.5 31.0001 32.5Z" fill="#FFBB01"/>
<path d="M35.1667 31.6667V28.3333C35.1667 27.8731 34.7935 27.5 34.3333 27.5C33.8731 27.5 33.5 27.8731 33.5 28.3333V31.6667C33.5 32.1269 33.8731 32.5 34.3333 32.5C34.7935 32.5 35.1667 32.1269 35.1667 31.6667Z" fill="#FFBB01"/>
<path d="M38.4999 31.6667V28.3333C38.4999 27.8731 38.1268 27.5 37.6666 27.5C37.2064 27.5 36.8333 27.8731 36.8333 28.3333V31.6667C36.8333 32.1269 37.2064 32.5 37.6666 32.5C38.1268 32.5 38.4999 32.1269 38.4999 31.6667Z" fill="#FFBB01"/>
<path d="M41.8332 31.6667V28.3333C41.8332 27.8731 41.46 27.5 40.9998 27.5C40.5396 27.5 40.1665 27.8731 40.1665 28.3333V31.6667C40.1665 32.1269 40.5396 32.5 40.9998 32.5C41.46 32.5 41.8332 32.1269 41.8332 31.6667Z" fill="#FFBB01"/>
<path d="M27.6665 42.5C27.2063 42.5 26.8332 42.8732 26.8332 43.3334C26.8332 43.7936 26.4601 44.1667 25.9999 44.1667C25.5397 44.1667 25.1665 43.7936 25.1665 43.3334C25.1665 42.8732 25.5397 42.5 25.9999 42.5C26.4601 42.5 26.8332 42.1269 26.8332 41.6667C26.8332 41.2065 26.4601 40.8334 25.9999 40.8334C24.6193 40.8334 23.4999 41.9528 23.4999 43.3334C23.4999 44.7144 24.6193 45.8334 25.9999 45.8334C27.3805 45.8334 28.4999 44.7144 28.4999 43.3334C28.4999 42.8732 28.1267 42.5 27.6665 42.5Z" fill="#FFBB01"/>
<path d="M31.0001 40.8334C30.5399 40.8334 30.1667 41.2065 30.1667 41.6667V45C30.1667 45.4602 30.5399 45.8334 31.0001 45.8334C31.4603 45.8334 31.8334 45.4602 31.8334 45V41.6667C31.8334 41.2065 31.4603 40.8334 31.0001 40.8334Z" fill="#FFBB01"/>
<path d="M34.3333 40.8334C33.8731 40.8334 33.5 41.2065 33.5 41.6667V45C33.5 45.4602 33.8731 45.8334 34.3333 45.8334C34.7935 45.8334 35.1667 45.4602 35.1667 45V41.6667C35.1667 41.2065 34.7935 40.8334 34.3333 40.8334Z" fill="#FFBB01"/>
<path d="M37.6666 40.8334C37.2064 40.8334 36.8333 41.2065 36.8333 41.6667V45C36.8333 45.4602 37.2064 45.8334 37.6666 45.8334C38.1268 45.8334 38.4999 45.4602 38.4999 45V41.6667C38.4999 41.2065 38.1268 40.8334 37.6666 40.8334Z" fill="#FFBB01"/>
<path d="M40.9998 40.8334C40.5396 40.8334 40.1665 41.2065 40.1665 41.6667V45C40.1665 45.4602 40.5396 45.8334 40.9998 45.8334C41.46 45.8334 41.8332 45.4602 41.8332 45V41.6667C41.8332 41.2065 41.46 40.8334 40.9998 40.8334Z" fill="#FFBB01"/>
<path d="M7.31676 29.8418C7.42703 29.8906 7.54625 29.9158 7.66669 29.9167C8.05284 29.911 8.38406 29.6404 8.46747 29.2636C8.55048 28.8864 8.36412 28.5019 8.01663 28.3334C4.09939 26.5382 1.96112 22.2572 2.8795 18.047C3.79747 13.8368 7.52428 10.8346 11.8334 10.8334C12.6789 10.833 13.5204 10.9506 14.3334 11.1833C14.7484 11.3034 15.1858 11.0861 15.3417 10.6837C17.4388 5.24422 22.6704 1.65942 28.5 1.66675C35.1398 1.6993 40.8771 6.31356 42.3334 12.7918C42.4079 13.1259 42.6789 13.3802 43.0166 13.4335C46.6535 14.0146 49.3305 17.1506 49.3334 20.8334C49.3297 21.0759 49.313 21.318 49.2833 21.5585C49.2528 21.7823 49.3146 22.0094 49.4542 22.1868C49.5942 22.3642 49.8001 22.4773 50.0251 22.5001C50.2477 22.5233 50.4702 22.4561 50.6424 22.3133C50.8149 22.1709 50.9227 21.965 50.9418 21.742C50.9785 21.4405 50.998 21.1374 51 20.8334C51.0171 16.5365 48.0309 12.811 43.8333 11.8918C42.0034 4.91382 35.714 0.0358877 28.5 8.03839e-05C22.2403 -0.0198577 16.5636 3.67073 14.0416 9.40031C13.3161 9.24446 12.5755 9.16593 11.8334 9.16675C6.74547 9.17204 2.34687 12.7174 1.26085 17.6881C0.175235 22.6588 2.69436 27.7153 7.31676 29.8418Z" fill="#FFBB01"/>
<path d="M14.3333 30.5087C14.4021 30.5205 14.4729 30.5205 14.5417 30.5087C15.4918 30.267 16.4032 29.8938 17.25 29.4003C17.4416 29.2888 17.5808 29.1057 17.637 28.8916C17.6931 28.6772 17.6618 28.4497 17.5499 28.2585C17.3184 27.8646 16.813 27.7307 16.4167 27.9586C15.6989 28.3745 14.9278 28.6914 14.125 28.9002C13.6648 28.9575 13.3385 29.3775 13.3958 29.8377C13.4532 30.2979 13.8731 30.6242 14.3333 30.5668V30.5087Z" fill="#FFBB01"/>
<path d="M11.0001 35.8334C11.4603 35.8334 11.8335 35.4602 11.8335 35V21.9169L13.6417 24.6253C13.7951 24.858 14.0547 24.9988 14.3335 25C14.4974 25.0021 14.6578 24.9524 14.7916 24.8584C15.1721 24.6041 15.2762 24.091 15.0252 23.7085L11.6919 18.7085C11.6919 18.7085 11.6919 18.7085 11.6499 18.6666C11.4921 18.4697 11.2528 18.3549 11.0001 18.3549C10.7474 18.3549 10.5082 18.4697 10.3503 18.6666C10.3503 18.6666 10.3503 18.6666 10.3084 18.7085L6.97506 23.7085C6.77161 24.0877 6.89043 24.5593 7.24931 24.797C7.60779 25.0346 8.08834 24.9601 8.35852 24.6253L10.1668 21.9169V35C10.1668 35.4602 10.5399 35.8334 11.0001 35.8334Z" fill="#FFBB01"/>
<path d="M32.2914 15.1417C31.9094 14.8906 31.3959 14.9948 31.1415 15.3752L29.3333 18.0836V8.33339C29.3333 7.87319 28.9602 7.50006 28.4999 7.50006C28.0397 7.50006 27.6666 7.87319 27.6666 8.33339V18.0836L25.8584 15.3752C25.7086 15.0965 25.4144 14.9264 25.0983 14.9362C24.7821 14.9459 24.4989 15.1335 24.3667 15.4208C24.2348 15.7081 24.2767 16.0454 24.4749 16.292L27.8082 21.292C27.9632 21.5223 28.2224 21.6602 28.4999 21.6602C28.7775 21.6602 29.0366 21.5223 29.1917 21.292L32.525 16.292C32.7761 15.9095 32.6719 15.396 32.2914 15.1417Z" fill="#FFBB01"/>
</svg>
